<!-- Generated by IcoMoon.io -->
<svg version="1.1" xmlns="http://www.w3.org/2000/svg" width="1024" height="1024" viewBox="0 0 1024 1024">
<title></title>
<g id="icomoon-ignore">
</g>
<path fill="#196272" d="M264.981 214.727c-2.415 0.48-9.488 1.658-15.713 2.612-6.227 0.956-12.722 2.463-14.434 3.346-1.712 0.886-5.136 1.935-7.603 2.328-2.469 0.396-5.051 1.397-5.741 2.229-0.692 0.829-1.816 1.51-2.495 1.51-1.426 0-17.425 7.603-18.257 8.674-0.303 0.386-1.89 1.295-3.526 2.012-1.639 0.718-3.864 2.097-4.942 3.065-1.082 0.966-5.802 4.743-10.487 8.388-4.762 3.702-11.884 10.829-16.138 16.132-4.186 5.228-8.333 10.316-9.215 11.317-0.882 0.997-1.966 2.973-2.412 4.392-0.445 1.417-1.726 3.755-2.853 5.197s-2.061 3.172-2.080 3.844c-0.016 0.673-1.25 3.697-2.734 6.717s-2.705 6.25-2.711 7.177c-0.006 0.925-1.011 4.524-2.229 7.995-3.673 10.452-3.213 42.537 0.718 50.069 0.818 1.565 1.488 3.96 1.494 5.316 0.006 2.789 5.867 15.781 9.132 20.24 4.691 6.414 4.81 6.394-39.705 6.394-31.187 0-40.757 0.315-41.494 1.372-0.541 0.773-0.718 56.299-0.408 127.117l0.55 125.745 78.204 0.577 0.725-7.805c0.401-4.295 1.202-8.694 1.784-9.782s1.378-4.871 1.768-8.407c0.393-3.535 1.639-7.97 2.769-9.853s2.057-4.359 2.057-5.5c0-1.143 1.236-4.398 2.746-7.235s2.746-5.898 2.746-6.8c0-0.904 0.69-2.039 1.53-2.521s2.338-2.608 3.326-4.723c2.861-6.124 14.051-23.454 16.666-25.807 0.673-0.605 1.928-2.167 2.792-3.474 1.974-2.988 13.411-16.045 18.562-21.196 3.364-3.358 8.314-7.772 19.139-17.062 4.991-4.285 21.309-15.925 22.32-15.925 0.566 0 2.208-0.911 3.648-2.029 1.442-1.114 6.572-4.124 11.404-6.685s9.254-5.11 9.83-5.657c0.573-0.551 1.761-1.001 2.637-1.001s4.359-1.295 7.743-2.882c3.383-1.584 7.632-3.541 9.443-4.346 5.438-2.421 16.251-6.079 19.767-6.685 1.813-0.313 7.148-1.761 11.862-3.213 4.711-1.452 10.419-2.641 12.683-2.641 5.531 0 6.752-1.555 6.752-8.601 0-11.62-6.034-14.718-25.269-12.979-12.316 1.114-15.909 0.944-56.547-2.676-7.247-0.645-15.258-1.864-17.803-2.708s-7.959-2.068-12.036-2.717c-4.079-0.651-7.933-1.617-8.571-2.144-0.634-0.529-3.619-1.551-6.629-2.274-3.010-0.725-6.572-1.996-7.911-2.827-1.337-0.829-3.107-1.51-3.938-1.51-2.235 0-22.6-10.674-26.293-13.782-1.761-1.481-3.648-2.692-4.203-2.692-1.851 0-16.638-15.571-15.684-16.521 0.513-0.512 11.659-1.082 24.77-1.265 27.308-0.383 29.667-1.057 21.18-6.034-38.446-22.555-48.83-72.55-23.679-114.005 3.41-5.625 16.577-18.572 21.837-21.479 7.805-4.314 9.582-5.226 14.603-7.512 2.785-1.269 5.638-2.305 6.344-2.305 0.702 0 4.015-0.96 7.354-2.135 14.312-5.030 71.345-5.451 88.005-0.645 2.888 0.831 8.881 2.059 13.318 2.725 4.441 0.664 9.48 1.938 11.205 2.83 1.722 0.888 4.138 1.619 5.362 1.619 6.678 0 46.521 18.675 52.655 24.677l2.608 2.554-2.608 1.365c-1.432 0.747-3.348 2.061-4.257 2.917-0.905 0.857-4.124 3.137-7.154 5.065-26.827 17.099-52.855 43.637-61.061 62.263-1.365 3.103-2.312 5.059-3.979 8.236-3.239 6.175-6.849 21.47-7.128 30.2l-0.299 9.334 18.994 0.303c23.431 0.371 22.754 0.682 22.379-10.365-0.219-6.462 0.27-10.172 1.955-14.895 1.239-3.459 2.248-6.923 2.248-7.705s0.989-3.261 2.196-5.512c1.207-2.254 2.196-4.665 2.196-5.355 0-7.199 19.864-28.209 42.653-45.114 10.856-8.056 22.958-11.21 26.522-6.913 2.547 3.066 3.294 0.451 1.102-3.848-2.75-5.393-2.734-5.98 0.252-8.761 2.245-2.089 25.933-14.285 27.751-14.285 0.789 0 12.782-5.754 15.932-7.644 32.112-19.258 70.863-14.005 77.499 10.51 5.119 18.924-14.138 53.772-36.156 65.418-1.295 0.682-4.333 2.836-6.748 4.78-2.415 1.948-6.040 4.463-8.052 5.596-2.009 1.133-5.094 2.859-6.849 3.834s-3.945 2.402-4.865 3.166c-1.877 1.558-7.041 4.53-12.265 7.055-3.010 1.458-13.356 7.348-26.721 15.217-6.192 3.643-12.313 7.142-17.023 9.721l-4.392 2.408 3.294 1.444c1.813 0.792 5.902 1.37 9.090 1.278 7.948-0.225 9.189 1.388 3.899 5.075-13.223 9.212-19.847 13.053-39.682 22.993-7.065 3.541-14.080 7.067-15.589 7.837s-4.969 1.757-7.688 2.192c-2.717 0.438-7.016 1.729-9.55 2.869-2.534 1.143-5.062 2.076-5.619 2.076-2.628 0-6.798 4.721-6.798 7.692 0 7.802 9.785 9.328 31.3 4.882 33.362-6.9 56.683 7.76 44.282 27.827-5.675 9.18-24.414 12.104-40.325 6.29-19.721-7.203-60.202-4.109-76.987 5.893-0.905 0.538-4.613 2.421-8.236 4.186-19.209 9.346-36.089 22.774-55.012 43.761-7.509 8.33-11.012 12.943-18.73 24.665-2.189 3.323-4.83 7.284-5.873 8.806-1.040 1.52-2.27 3.96-2.734 5.414-0.46 1.458-1.764 4.165-2.894 6.019-1.131 1.855-2.059 4.373-2.061 5.599 0 1.224-0.702 3.226-1.558 4.446-0.853 1.221-2.309 4.913-3.233 8.208-0.923 3.29-2.398 8.209-3.285 10.928-4.964 15.285-7.117 27.111-6.34 34.852 0.103 1.040 8.191 1.426 34.456 1.648l34.319 0.289-0.326 3.294c-0.177 1.813-1.166 7-2.196 11.53-2.074 9.132-2.75 64.361-0.95 77.593 1.137 8.355-0.772 9.669-8.655 5.963-2.68-1.259-5.539-2.289-6.355-2.289-1.5 0-11.15-4.785-18.459-9.161-8.333-4.985-23.357-21.873-25.887-29.1-0.351-1.001-1.53-3.838-2.614-6.299-3.51-7.95-6.488-25.718-6.488-38.683 0-14.786 3.159-13.401-30.566-13.385-34.172 0.019-32.425-0.425-31.687 8.108 1.127 13.019 2.882 22.131 5.097 26.432 1.236 2.393 2.283 5.11 2.334 6.040 0.047 0.927 1.749 4.653 3.778 8.278 2.031 3.625 4.721 8.442 5.973 10.707s2.768 4.118 3.358 4.118c0.593 0 1.076 0.55 1.076 1.221 0 3.728 25.481 27.102 36.337 33.329 6.494 3.725 17.977 9.348 19.122 9.364 0.605 0.009 3.075 0.95 5.49 2.096 7.386 3.496 23.466 6.681 37.47 7.422l13.311 0.699 1.71 3.96c2.042 4.736 3.607 10.874 4.579 17.938 0.39 2.855 1.12 5.444 1.623 5.751 0.499 0.309 1.243 2.421 1.649 4.695 1.922 10.719 2.898 13.025 4.559 10.755 1.897-2.595 1.928-5.906 0.239-25.038-1.627-18.44-2.183-17.635 13.379-19.309 6.344-0.682 13.507-1.966 15.925-2.853 2.415-0.885 5.895-1.631 7.727-1.655 1.836-0.028 5.22-1.011 7.52-2.183s5.745-2.469 7.648-2.882c1.907-0.412 4.775-1.675 6.379-2.808 1.603-1.131 3.58-2.078 4.392-2.103 0.812-0.022 4.196-1.736 7.518-3.806s7.521-4.594 9.334-5.615c15.851-8.9 46.488-38.819 59.362-57.967 1.176-1.749 2.879-4.283 3.786-5.632 0.905-1.345 3.567-5.348 5.915-8.896s5.11-7.685 6.14-9.195c4.921-7.216 3.059-10.983-5.426-10.983-5.164 0-6.835-2.227-4.016-5.342 0.979-1.085 1.78-2.393 1.78-2.907s0.941-2.949 2.093-5.407c14.576-31.12 16.505-57.958 4.988-69.471-0.848-0.848-1.922-2.135-2.389-2.862-8.246-12.854-47.341-12.794-68.349 0.103-17.593 10.8-31.22 24.017-41.555 40.312-1.916 3.020-4.231 6.458-5.142 7.634-0.914 1.182-1.662 2.721-1.662 3.42 0 0.702-0.959 2.495-2.128 3.984-1.172 1.488-2.482 4.147-2.914 5.915-0.432 1.762-1.7 4.385-2.814 5.824s-2.029 3.42-2.029 4.402c0 0.979-1.198 4.035-2.663 6.785-4.237 7.959-7.496 7.521 58.353 7.857 32.691 0.165 59.748 0.608 60.124 0.985 0.789 0.792-3.607 9.412-6.991 13.713-1.263 1.607-2.299 3.394-2.299 3.973 0 0.577-1.020 2.363-2.27 3.97s-4.833 6.381-7.963 10.61c-9.974 13.482-30.443 34.559-41.047 42.271-2.901 2.113-5.526 4.109-5.824 4.433-1.456 1.582-11.517 7.653-12.683 7.653-0.727 0-1.873 0.659-2.54 1.465-0.67 0.809-3.201 2.122-5.625 2.921-2.424 0.802-4.408 1.813-4.408 2.248 0 0.434-2.299 1.37-5.107 2.076-2.81 0.708-6.394 1.948-7.963 2.75-7.444 3.815-37.966 4.511-39.351 0.896-0.914-2.383 4.109-31.151 7.805-44.711 0.982-3.6 1.784-7.444 1.784-8.54s0.989-4.804 2.196-8.243c1.207-3.438 2.196-7.564 2.196-9.167 0-1.607 0.966-5.1 2.144-7.766 1.182-2.666 2.599-7.547 3.152-10.848 0.551-3.3 1.345-6.798 1.757-7.772 1.040-2.443-3.233-3.168-18.721-3.168h-12.493v-3.803c0-2.093 0.921-6.169 2.044-9.061s2.367-7.016 2.756-9.161c0.39-2.15 1.694-5.838 2.898-8.195s2.187-4.971 2.187-5.809c0-0.834 0.725-2.83 1.612-4.433s2.363-4.647 3.278-6.759c9.218-21.303 28.363-44.834 46.070-56.628 7.432-4.949 11.212-7.203 13.163-7.831 1.143-0.367 4.257-1.833 6.923-3.248 2.666-1.421 5.589-2.579 6.495-2.579 0.908 0 3.778-0.97 6.379-2.153 4.392-2.002 24.423-5.712 31.941-5.915 5.812-0.158 24.87 3.755 28.956 5.947 2.177 1.165 4.408 2.118 4.958 2.118 1.983 0 13.409 8.272 18.118 13.118 24.863 25.579 25.024 61.271 0.445 97.495-2.972 4.379-3.088 5.339-0.772 6.231 2.27 0.873 485.15 0.873 487.421 0 1.571-0.603 1.738-12.789 1.738-126.715v-126.048l-2.47-0.662c-1.359-0.363-110.206-0.676-241.879-0.696-131.675-0.016-240.056-0.441-240.846-0.941-1.076-0.682-0.666-1.421 1.619-2.917 1.681-1.104 3.564-2.432 4.184-2.954 0.618-0.521 3.903-2.786 7.296-5.030 9.887-6.54 20.938-14.193 25.679-17.788 2.415-1.833 5.258-3.628 6.314-3.998s1.922-1.001 1.922-1.404 1.607-1.668 3.569-2.81c1.964-1.139 3.815-2.383 4.118-2.76s5.986-4.565 12.628-9.309c6.644-4.743 13.39-9.659 14.993-10.928 1.6-1.269 4.559-3.541 6.575-5.051 9.356-7.010 22.89-26.586 22.903-33.132 0.004-1.008 0.799-4.929 1.768-8.713 5.661-22.097-8.824-42.683-35.512-50.458-9.846-2.869-36.79-3.246-45.87-0.64-3.020 0.866-7.467 1.907-9.885 2.309-11.806 1.977-53.801 18.708-58.559 23.331-0.795 0.773-2.089 1.407-2.872 1.407-0.779 0-2.676 0.989-4.212 2.196-3.204 2.521-10.129 2.949-11.452 0.705-1.24-2.106-13.031-11.517-16.282-12.999-1.494-0.68-2.715-1.664-2.715-2.187s-1.111-1.442-2.47-2.042c-1.359-0.603-4.695-2.54-7.412-4.309-4.524-2.946-9.386-5.419-24.709-12.589-3.020-1.411-6.974-2.911-8.787-3.329s-4.035-1.407-4.942-2.192c-0.905-0.792-4.366-1.949-7.688-2.579-3.323-0.631-8.265-1.873-10.983-2.768-2.717-0.896-8.649-2.174-13.179-2.843-4.53-0.673-10.707-1.671-13.726-2.225-6.663-1.217-29.072-1.221-35.142-0.009zM222.762 395.249c-1.421 1.71 1.314 3.922 4.853 3.922 0.97 0 3.597 0.923 5.838 2.048s6.050 2.406 8.468 2.843c2.415 0.438 7.358 1.7 10.983 2.801s10.050 2.495 14.277 3.1c4.227 0.605 9.911 1.597 12.628 2.208 9.818 2.202 35.408 3.687 36.853 2.138 0.908-0.976 1.146-4.385 0.764-11.022l-0.551-9.608h-46.402c-38.903 0-46.614 0.252-47.706 1.571zM363.641 395.39c-3.055 7.967 21.222 15.697 34.542 10.999 2.443-0.863 6.83-1.922 9.75-2.356 2.917-0.432 7.029-1.703 9.135-2.824s4.485-2.041 5.288-2.041c3.275 0 5.915-2.276 4.55-3.922-2.041-2.457-62.314-2.322-63.261 0.142zM622.707 458.198c1.545 1.745 1.465 2.373-0.873 6.865-1.417 2.717-2.904 5.683-3.306 6.588-2.289 5.168-11.788 24.964-12.645 26.358-0.56 0.905-1.504 2.785-2.103 4.173-3.407 7.896-7.203 15.371-8.971 17.664-1.109 1.442-2.019 3.474-2.019 4.519s-0.925 3.078-2.054 4.519c-1.128 1.442-2.406 4.225-2.834 6.188s-1.195 3.569-1.705 3.569c-0.509 0-1.52 1.854-2.248 4.118-0.725 2.264-1.994 4.892-2.818 5.838-0.821 0.944-2.064 3.417-2.762 5.49s-1.983 4.602-2.859 5.615c-4.668 5.409-1.784 6.327 20.914 6.644l21.075 0.299 0.326 3.339c0.214 2.18-0.643 4.769-2.47 7.463-1.538 2.267-2.798 4.569-2.798 5.116 0 0.544-1.236 3.313-2.746 6.153-1.51 2.842-2.746 5.831-2.746 6.649 0 0.814-0.371 1.484-0.824 1.491-0.453 0.004-1.668 1.484-2.693 3.294l-1.873 3.287h-24.59c-38.967 0-51.282-0.898-51.314-3.737-0.019-1.873 3.681-10.149 11.099-24.816 2.35-4.649 7.463-15.161 8.545-17.571 0.676-1.51 1.694-3.487 2.26-4.392 0.904-1.444 12.838-25.753 35.090-71.478 3.699-7.603 6.726-14.125 6.726-14.496s1.519-2.923 3.372-5.673l3.374-4.997h12.38c10.413 0 12.65 0.306 14.080 1.922zM748.366 458.748c1.176 1.89 0.625 5.735-1.89 13.185-1.172 3.474-2.132 7.781-2.132 9.57 0 1.784-0.944 5.861-2.097 9.054s-2.406 8.278-2.779 11.298c-0.373 3.020-1.6 8.703-2.727 12.628-1.961 6.83-2.562 9.443-6.197 26.905-0.882 4.227-2.376 10.166-3.327 13.198s-2.398 8.961-3.22 13.179c-2.886 14.805-4.054 19.816-6.394 27.436l-2.361 7.688-14.277 0.274c-7.854 0.152-14.904-0.132-15.678-0.628-1.458-0.944 0.664-12.586 3.084-16.93 3.162-5.677 1.391-6.327-17.198-6.327-16.457 0-15.877-0.239-22.373 9.2-10.812 15.709-9.556 14.959-25.038 14.959-17.621 0-17.538 0.233-5.5-15.925 5.4-7.247 10.652-14.341 11.669-15.758 4.292-5.992 7.855-10.716 9.383-12.438 0.902-1.011 2.237-2.968 2.975-4.346 0.738-1.382 2.212-3.271 3.275-4.202 1.065-0.933 4.295-5.153 7.18-9.383s7.257-10.268 9.711-13.42c11.781-15.124 30.48-40.113 33.020-44.128 0.605-0.956 3.323-4.538 6.040-7.967 2.717-3.426 5.854-7.383 6.967-8.794 1.111-1.411 2.528-3.626 3.142-4.923 2.155-4.54 34.186-7.509 36.738-3.407zM822.764 458.108l4.285 0.708-0.712 22.828c-0.39 12.554-1.005 29.404-1.369 37.443l-0.659 14.611 2.118-3.294c1.166-1.813 2.943-3.973 3.945-4.8 1.005-0.829 1.825-2.155 1.825-2.946s2.396-6.104 5.325-11.808 5.635-11.295 6.010-12.429c0.373-1.131 1.165-2.801 1.755-3.706 1.127-1.729 3.504-6.353 5.642-10.983 0.699-1.51 1.803-3.735 2.454-4.942 0.647-1.207 1.864-3.68 2.698-5.49s2.248-4.53 3.142-6.040c0.898-1.51 2.138-4.077 2.76-5.702 1.131-2.954 1.139-2.956 14.322-3.294 17.095-0.438 16.911-0.708 9.688 14.19-3.152 6.507-9.924 20.478-15.047 31.049-5.119 10.571-9.846 20.208-10.499 21.415-1.246 2.302-3.825 7.434-5.377 10.707-0.499 1.057-1.359 2.786-1.907 3.844-4.967 9.614-20.971 42.834-20.971 43.525 0 0.49-0.923 2.2-2.054 3.803-1.128 1.603-2.435 4.151-2.904 5.661s-2.031 4.613-3.474 6.897l-2.618 4.151-27.936-0.614 0.399-34.16c0.289-24.555 0.041-34.829-0.879-36.545-1.575-2.943-2.972-2.218-3.904 2.029-0.39 1.777-1.588 4.366-2.663 5.751-1.072 1.388-2.305 3.967-2.737 5.731s-1.742 4.426-2.914 5.915c-1.169 1.488-2.128 3.593-2.128 4.676 0 1.085-0.64 2.624-1.421 3.42-0.779 0.799-2.097 3.181-2.927 5.296s-2.167 4.624-2.973 5.576c-0.809 0.956-1.469 2.19-1.475 2.746-0.009 1.401-12.483 26.316-14.222 28.412-1.43 1.724-23.901 2.595-27.852 1.079-1.288-0.494-0.167-3.496 5.4-14.463 3.866-7.611 7.029-14.296 7.029-14.856s0.923-2.328 2.054-3.932c1.128-1.603 2.431-4.151 2.898-5.661 0.464-1.51 1.762-3.923 2.888-5.364s2.044-3.465 2.044-4.501c0-1.034 0.989-3.020 2.196-4.411s2.206-3.075 2.212-3.737c0.009-0.664 3.471-8.124 7.688-16.579 4.221-8.456 7.67-15.932 7.67-16.614s0.659-1.788 1.465-2.454c0.809-0.67 2.122-3.201 2.921-5.625 0.802-2.424 1.851-4.408 2.338-4.408 0.484 0 1.407-1.955 2.048-4.344s1.897-5.071 2.789-5.96c0.888-0.892 1.613-2.025 1.612-2.521-0.016-2.866 13.778-28.109 15.806-28.931 2.775-1.12 18.15-1.339 24.181-0.344zM705.906 506.802c-0.76 1.836-1.935 3.699-2.612 4.134-1.636 1.063-8.369 11.006-8.369 12.365 0 0.586-0.39 1.065-0.866 1.065-0.818 0-9.019 11.498-9.019 12.645 0 0.293-0.989 1.523-2.196 2.73-5.062 5.062-1.565 7.737 9.011 6.887 7.743-0.624 9.659-2.469 9.659-9.306 0-1.146 0.76-3.555 1.687-5.355 0.931-1.796 2.189-5.96 2.798-9.253 0.606-3.289 1.819-7.354 2.695-9.031 2.003-3.841 2.042-7.358 0.097-8.971-1.198-0.995-1.79-0.566-2.888 2.087z"></path>
</svg>
