<svg id="svg" xmlns="http://www.w3.org/2000/svg" xmlns:xlink="http://www.w3.org/1999/xlink" width="400" height="384.8837209302325" viewBox="0, 0, 400,384.8837209302325"><g id="svgg"><path id="path0" d="M192.126 25.842 C 151.389 32.174,126.382 75.485,141.013 114.366 C 157.907 159.261,215.850 171.637,249.700 137.581 C 294.661 92.347,255.331 16.018,192.126 25.842 M239.110 70.040 C 242.964 70.857,248.392 73.374,251.042 75.574 C 254.529 78.467,255.140 96.837,252.058 106.105 C 239.693 143.285,193.941 154.503,166.533 127.075 C 155.371 115.905,149.767 98.889,152.301 83.864 C 153.178 78.665,153.030 78.746,157.955 80.815 C 176.851 88.754,195.135 87.433,211.136 76.972 C 220.841 70.628,230.540 68.224,239.110 70.040 M143.895 153.895 C 116.748 156.358,93.023 176.141,93.023 196.314 L 93.023 198.256 202.992 198.256 L 312.961 198.256 312.592 193.883 C 310.714 171.672,287.460 154.675,257.558 153.657 L 247.965 153.331 245.411 155.468 C 224.703 172.795,184.558 173.259,162.595 156.425 L 158.763 153.488 152.492 153.586 C 149.043 153.640,145.174 153.779,143.895 153.895 M95.930 205.053 C 90.714 205.929,85.251 209.485,82.928 213.518 C 80.160 218.323,80.152 218.543,80.343 284.012 L 80.523 345.640 81.947 348.547 C 82.730 350.145,83.471 351.650,83.594 351.890 C 83.717 352.129,74.377 352.326,62.839 352.326 C 42.636 352.326,41.817 352.369,40.698 353.488 C 39.237 354.949,39.221 356.460,40.646 358.220 L 41.758 359.593 199.222 359.758 C 367.728 359.935,360.067 360.034,361.256 357.677 C 363.764 352.707,362.314 352.326,340.926 352.326 L 322.149 352.326 323.720 349.298 L 325.291 346.270 325.291 282.001 L 325.291 217.733 323.744 214.826 C 320.978 209.628,316.488 206.375,310.517 205.242 C 307.510 204.672,99.295 204.489,95.930 205.053 M207.362 233.420 C 215.298 234.920,226.163 241.440,226.163 244.703 C 226.163 247.778,222.913 248.500,220.254 246.015 C 210.022 236.452,193.752 236.311,182.242 245.685 C 178.747 248.532,178.190 248.692,176.645 247.294 C 170.019 241.298,193.333 230.767,207.362 233.420 M209.012 248.402 C 212.923 250.406,215.579 253.206,214.777 254.477 C 213.341 256.754,211.949 257.084,209.832 255.651 C 203.555 251.400,199.013 251.393,192.887 255.623 C 188.834 258.422,185.870 254.383,189.455 250.948 C 194.141 246.459,202.977 245.308,209.012 248.402 M203.786 261.054 C 205.175 262.589,205.164 265.629,203.765 266.652 C 201.266 268.479,197.674 266.900,197.674 263.975 C 197.674 260.488,201.583 258.620,203.786 261.054 M231.856 298.401 C 231.614 331.758,234.902 328.560,201.064 328.351 L 176.255 328.198 174.681 326.744 C 172.349 324.592,171.512 322.062,171.512 317.170 L 171.512 312.791 168.295 312.791 C 159.996 312.791,158.721 310.835,158.721 298.101 C 158.721 284.636,159.689 283.140,168.401 283.140 L 172.093 283.140 172.093 279.070 L 172.093 275.000 202.060 275.000 L 232.026 275.000 231.856 298.401 M164.920 289.103 C 164.040 289.747,163.939 290.846,164.082 298.260 L 164.244 306.686 167.878 306.859 L 171.512 307.032 171.512 297.702 L 171.512 288.372 168.716 288.372 C 167.178 288.372,165.470 288.701,164.920 289.103 " stroke="none" fill="#000000" fill-rule="evenodd"></path></g></svg>