<!-- Generated by IcoMoon.io -->
<svg version="1.1" xmlns="http://www.w3.org/2000/svg" width="2048" height="1024" viewBox="0 0 2048 1024">
<title></title>
<g id="icomoon-ignore">
</g>
<path fill="#f89d1c" d="M591.733 84.466c0 1.934-0.348 2.15-3.476 2.15-2.281 0-3.425 0.363-3.339 1.072 0.080 0.59 0.092 6.566 0.035 13.266l-0.098 12.188-5.584 0.545-0.428 12.026-0.437 12.032-2.224-0.254c-2.49-0.297-4.43 1.506-4.187 3.856 0.983 9.413-0.134 21.746-1.965 21.766-2.267 0.016-4.234 1.103-4.025 2.217 0.080 0.428 0.098 6.073 0.045 12.542l-0.104 11.766-6.443 0.532-0.242 12.675c-0.229 11.923-0.342 12.682-1.934 12.787-0.938 0.059-2.176 0.149-2.766 0.213-0.806 0.080-1.136 3.968-1.316 15.57-0.279 18.021-0.175 17.506-3.546 17.268-3.451-0.242-3.627 0.4-3.519 13.191 0.041 5.934 0.064 11.309 0.035 11.952-0.031 0.797-0.84 1.049-2.594 0.793-3.361-0.495-3.464-0.089-3.464 13.569v11.528h-3.47c-2.281 0-3.425 0.363-3.339 1.072 0.080 0.59 0.089 6.58 0.035 13.319l-0.104 12.247h-5.968l-0.242 12.247c-0.193 10.112-0.456 12.2-1.477 11.981-4.719-1.027-5.046-0.196-5.169 13.336-0.134 14.435 0.238 13.078-3.559 13.383l-2.933 0.242-0.242 12.596-0.242 12.6-5.545 0.532-0.266 12.446c-0.309 14.159 0.016 12.851-3.244 13.078-3.714 0.266-3.812 0.717-3.767 16.581 0.026 8.030 0.026 15.054 0.006 15.6-0.023 0.564-1.158 0.91-2.642 0.812-3.272-0.231-3.356 0.134-3.627 14.528l-0.207 11.175-2.176 0.041c-4.109 0.080-4.271 0.603-4.271 13.272v11.929l-5.584 0.54-0.473 25.351h-3.451c-2.267 0-3.41 0.369-3.308 1.072 0.080 0.59 0.089 6.367 0.031 12.838l-0.098 11.76-5.584 0.54-0.272 12.446c-0.301 14.165 0.023 12.851-3.238 13.078-3.627 0.26-3.773 0.783-3.786 13.738l-0.016 11.76-5.584 0.54-0.242 12.675c-0.254 13.555-0.272 13.597-4.845 12.735-1.852-0.351-2.261 2.991-2.113 17.559l0.156 15.466-2.753-0.013c-3.425-0.016-3.486 0.229-3.76 14.623l-0.207 11.175-2.15 0.026c-4.212 0.053-4.291 0.393-4.291 16.357v15.004l51.129-0.456 0.25-6.183 0.25-6.177 5.506-0.532 0.437-12.891c0.351-10.608 0.649-12.851 1.662-12.625 2.062 0.451 5.29-0.678 5.141-1.799-0.080-0.574-0.089-7.918-0.031-16.303l0.098-15.253h6.855l-0.311-26.208 5.921-0.104 0.473-25.248h3.457c2.267 0 3.406-0.369 3.308-1.078-0.080-0.59-0.092-6.558-0.035-13.266l0.098-12.188 5.584-0.54 0.483-23.637h2.444c2.753 0 4.588-1.699 4.337-4.025-0.983-9.418 0.134-21.752 1.965-21.77 2.267-0.016 4.234-1.103 4.025-2.214-0.080-0.428-0.098-6.079-0.045-12.542l0.104-11.766 6.443-0.532 0.473-25.248 5.545-0.532 0.238-15.466c0.266-17.497 0.333-17.837 2.98-17.491 3.871 0.504 4.173-0.417 4.084-12.446-0.045-6.216-0.067-11.842-0.041-12.483 0.031-0.806 0.84-1.056 2.594-0.797 3.361 0.498 3.464 0.092 3.464-13.563v-11.528h3.47c2.281 0 3.428-0.369 3.339-1.078-0.080-0.59-0.089-6.364-0.035-12.83l0.104-11.766 5.584-0.54 0.428-12.46c0.428-12.422 0.441-12.454 2.416-12.177 4.015 0.562 4.462-0.834 4.462-14.086v-12.298l5.584-0.54 0.272-12.446c0.301-14.165-0.023-12.851 3.238-13.078 3.627-0.26 3.773-0.783 3.786-13.738l0.016-11.76 5.584-0.54 0.428-16.325 0.437-16.331 2.141-0.026c4.187-0.059 4.38-0.635 4.291-12.72-0.041-6.216-0.064-11.842-0.035-12.483 0.026-0.806 0.84-1.056 2.591-0.797 3.367 0.498 3.47 0.092 3.47-13.563v-11.528h3.47c2.281 0 3.425-0.369 3.339-1.078-0.080-0.59-0.092-6.364-0.035-12.83l0.098-11.766 5.593-0.54 0.238-12.625 0.242-12.631 6.403-0.526 0.242-12.675c0.229-11.923 0.342-12.682 1.934-12.787 0.938-0.059 2.176-0.149 2.766-0.213 0.783-0.080 1.141-3.073 1.316-11.064l0.242-10.954h-50.753v2.15zM656.033 84.25c-0.207 1.472-0.754 1.868-2.261 1.651-2.537-0.351-4.592 1.338-4.408 3.64 0.776 10.058-0.149 21.996-1.699 21.996-4.1 0-4.201 0.301-4.325 13.081-0.127 13.364-0.175 13.585-2.63 12.942-3.84-1.002-4.229 0.599-4.217 17.235l0.013 15.605h-6.101v26.214h-3.437c-1.893 0-3.397 0.289-3.339 0.644 0.053 0.351 0.053 6.13 0 12.838l-0.104 12.188-5.584 0.54-0.473 25.351h-6.831v12.46c0 11.715-0.098 12.46-1.646 12.46-4.1 0-4.201 0.309-4.322 13.087-0.134 13.364-0.175 13.577-2.63 12.933-2.227-0.577-4.419 1.256-4.24 3.546 0.778 10.058-0.146 21.996-1.699 21.996-4.1 0-4.201 0.301-4.322 13.081-0.134 13.364-0.175 13.585-2.636 12.942-3.929-1.033-4.365 0.672-4.285 16.856 0.035 8.311 0.059 15.628 0.031 16.258-0.026 0.765-0.951 1.049-2.82 0.857l-2.793-0.283-0.428 12.897-0.437 12.891-2.15 0.026c-4.115 0.053-4.291 0.603-4.291 13.29v11.929l-5.584 0.54-0.473 25.351h-3.457c-2.267 0-3.406 0.369-3.308 1.078 0.080 0.59 0.092 6.168 0.035 12.402l-0.098 11.333-5.593 0.54-0.242 12.032c-0.272 13.856-0.348 14.207-2.717 13.577-3.789-0.995-4.344 0.789-4.344 14.028v12.359h-3.043c-1.934 0-2.991 0.393-2.902 1.072 0.080 0.59 0.089 6.367 0.031 12.844l-0.098 11.76-6.443 0.532-0.098 16.331-0.092 16.325-5.828 0.080-0.428 12.851-0.428 12.844-2.578 0.006c-3.702 0.006-3.84 0.486-3.853 13.538l-0.016 11.819h-3.47c-2.281 0-3.425 0.363-3.339 1.072 0.080 0.59 0.092 6.364 0.035 12.838l-0.104 11.76-5.584 0.54-0.242 12.631-0.238 12.625-6.405 0.532v30.935l50.708 0.361 0.428-6.632c0.406-6.326 0.517-6.617 2.416-6.351 3.996 0.562 4.462-0.871 4.462-13.708 0-11.79 0.023-11.923 1.929-11.938 2.267-0.016 4.234-1.103 4.025-2.217-0.080-0.428-0.098-6.079-0.041-12.542l0.098-11.766 6.448-0.532 0.238-12.625 0.242-12.625 5.545-0.532 0.242-15.475c0.266-17.657 0.231-17.436 2.913-17.235 3.988 0.297 4.277-0.694 4.078-13.636l-0.188-12.097h2.498c3.613 0 3.76-0.526 3.775-13.532l0.013-11.819h3.476c2.281 0 3.425-0.363 3.339-1.072-0.080-0.59-0.092-6.364-0.035-12.838l0.098-11.76 5.584-0.54 0.242-12.631 0.242-12.625 6.403-0.532 0.242-12.675c0.229-11.923 0.342-12.682 1.934-12.78 3.486-0.229 3.84-0.351 3.948-1.396 0.059-0.59 0.156-6.297 0.213-12.675l0.11-11.604h2.913c3.828 0 3.958-0.498 3.958-14.249 0-10.931 0.089-11.535 1.721-11.64 0.941-0.059 2.2-0.149 2.793-0.213 0.797-0.080 1.182-4.24 1.506-16.354l0.428-16.249 2.15-0.309c4.453-0.644 4.38-0.437 4.291-12.525-0.045-6.271-0.067-11.929-0.041-12.571 0.031-0.806 0.84-1.049 2.594-0.793 3.361 0.495 3.464 0.089 3.464-13.569v-11.528h3.47c2.281 0 3.425-0.363 3.339-1.072-0.685-5.277 0.221-25.374 1.141-25.335 5.22 0.193 4.943 0.904 4.943-12.692v-12.46h2.92c3.825 0 3.958-0.498 3.958-14.257 0-12.483-0.098-12.247 4.943-11.589 0.819 0.104 1.072-2.933 1.072-12.741v-12.874l6.448-0.532 0.242-12.675c0.25-13.555 0.266-13.597 4.839-12.735 1.814 0.348 2.236-2.874 2.195-16.7-0.026-8.030-0.026-15.054-0.006-15.6 0.023-0.564 1.158-0.91 2.642-0.812 3.272 0.231 3.356-0.134 3.627-14.528l0.207-11.175 2.176-0.041c4.253-0.080 4.396-0.562 4.203-13.575l-0.185-12.167h6.107l0.117-12.432c0.134-13.944-0.067-13.266 3.847-13.266h2.889l0.134-10.999 0.127-10.997h-51.524l-0.272 1.934z"></path>
<path fill="#646464" d="M184.383 87.472v5.156h-6.015v25.779h-6.876v25.788h-2.92c-3.825 0-3.958 0.498-3.958 14.198v11.47l-5.584 0.54-0.242 12.589-0.238 12.589-2.911 0.545c-3.775 0.712-3.929 1.256-3.929 14.146v10.926l-5.584 1.64-0.428 12.46c-0.412 11.991-0.504 12.476-2.299 12.726-3.559 0.51-4.123 2.379-4.446 14.477-0.297 11.413-0.309 11.468-2.335 11.468-3.295 0-3.812 2.392-3.812 17.512v14.181l-6.448 0.532-0.473 25.351h-5.968v25.788h-2.92c-3.825 0-3.958 0.495-3.958 14.249 0 10.792-0.104 11.528-1.646 11.528-4.277 0-4.374 0.266-4.374 13.312v12.275l-2.925 0.552c-3.802 0.717-3.948 1.252-3.948 14.146v10.931l-5.593 1.64-0.428 12.46c-0.412 11.991-0.504 12.476-2.299 12.726-3.552 0.51-4.123 2.379-4.439 14.477-0.297 11.413-0.309 11.468-2.335 11.468-3.289 0-3.812 2.392-3.812 17.512v14.181l-6.443 0.532-0.242 12.675c-0.229 11.966-0.335 12.675-1.934 12.675-1.668 0-1.691 0.789-1.691 48.13 0 47.55 0.023 48.123 1.721 48.123 1.604 0 1.713 0.568 1.713 8.999 0 9.634 0.54 10.77 5.068 10.77 1.558 0 1.759 0.631 1.988 6.226l0.25 6.234 2.676 0.254c2.604 0.254 2.689 0.393 3.226 5.584 0.564 5.489 1.9 7.48 5.007 7.48 1.197 0 1.551 0.672 1.551 2.92 0 2.967 1.085 3.958 4.316 3.958 1.17 0 1.668 0.736 1.861 2.793 0.242 2.552 0.555 2.82 3.494 3.058 3.029 0.242 3.221 0.441 3.221 3.134 0 3.029 1.087 3.904 4.802 3.904 1.639 0 2.074 0.451 2.074 2.119 0 2.757 2.254 3.894 7.675 3.894 4.039 0 4.357 0.149 4.357 2.083 0 3.443 2.141 4.792 7.615 4.792 4.807 0 4.929 0.064 5.733 2.793l0.828 2.793 18.133 0.486 0.819 2.74c1.234 4.158-0.193 4.109 103.374 3.871l95.96-0.221 0.26-3.177c0.242-2.874 0.523-3.196 3.006-3.437l2.746-0.266 0.473-25.351h2.527c3.732 0 4.304-1.965 4.304-14.98v-11.663h2.564c3.221 0 3.4-0.694 3.672-14.552l0.207-10.688 2.734-0.712c3.25-0.834 4.008-4.529 3.559-17.013l-0.272-7.306-155.117-0.441v-6.003h-6.448c-5.642 0-6.443-0.193-6.443-1.551 0-3.103-1.992-4.439-7.484-5.010l-5.343-0.555-0.25-5.679c-0.242-5.597-0.297-5.695-3.043-6.507l-2.793-0.828v-50.849l2.793-0.828 2.799-0.821 0.428-12.46c0.412-11.991 0.504-12.476 2.299-12.726 3.516-0.504 4.084-2.357 4.43-14.448 0.335-11.401 0.351-11.499 2.349-11.499 3.272 0 3.796-2.41 3.796-17.559v-14.235h2.403c4.115 0 4.471-1.103 4.471-13.871v-11.806l5.584-0.54 0.473-25.351h2.068c4.187 0 4.763-1.721 4.763-14.241 0-10.806 0.104-11.54 1.646-11.54 4.277 0 4.367-0.266 4.367-13.319v-12.275l2.92-0.552c3.708-0.694 3.935-1.576 3.948-15.276l0.016-10.902 5.584-0.54 0.242-12.675c0.242-12.663 0.242-12.675 2.261-12.675 3.665 0 4.316-1.973 4.669-14.286 0.301-10.401 0.486-11.499 1.9-11.499 3.796 0 4.257-1.852 4.257-17.247v-14.546h2.403c4.115 0 4.471-1.103 4.471-13.871v-11.806l5.584-0.54 0.473-25.351h2.527c3.723 0 4.304-1.971 4.304-14.552 0-10.496 0.11-11.229 1.646-11.229 4.298 0 4.374-0.229 4.374-13.841v-12.802h2.911c3.73 0 3.946-0.797 3.951-14.766l0.013-10.902 5.593-0.54 0.238-17.403 0.231-17.403h-122.065v5.156zM584.855 84.466c0 1.934 0.348 2.15 3.437 2.15 3.095 0 3.443-0.213 3.443-2.15s-0.348-2.15-3.443-2.15c-3.088 0-3.437 0.213-3.437 2.15zM797.981 84.039c0 1.116-0.568 1.713-1.646 1.713-4.277 0-4.374 0.266-4.374 13.319v12.275l-2.913 0.545c-3.685 0.688-3.938 1.61-3.948 14.721l-0.013 10.347-5.584 1.64-0.437 12.46c-0.406 11.996-0.504 12.476-2.299 12.726-3.516 0.504-4.084 2.365-4.43 14.448-0.335 11.401-0.351 11.499-2.349 11.499-3.272 0-3.796 2.41-3.796 17.559v14.241h-2.403c-4.115 0-4.471 1.094-4.471 13.871v11.802l-5.584 0.54-0.473 25.351h-2.068c-4.187 0-4.763 1.721-4.763 14.247 0 10.806-0.104 11.535-1.646 11.535-4.277 0-4.367 0.26-4.367 13.413 0 12.254-0.023 12.374-1.934 12.38-4.201 0.026-4.49 0.871-4.792 13.55l-0.279 11.898-5.457 1.604-0.242 12.675c-0.242 12.663-0.242 12.682-2.261 12.682-3.665 0-4.316 1.973-4.669 14.28-0.301 10.405-0.486 11.499-1.9 11.499-3.796 0-4.257 1.852-4.257 17.254v14.544h-2.92c-3.825 0-3.958 0.504-3.958 14.198v11.477l-5.584 0.54-0.473 25.351h-2.055c-4.75 0-4.773 0.080-4.773 13.413 0 11.62-0.098 12.367-1.646 12.367-4.298 0-4.374 0.229-4.374 13.841v12.802h-2.547c-4.35 0-4.325-0.272-4.325 54.837 0 55.075-0.175 52.956 4.291 53.58 2.062 0.289 2.16 0.584 2.398 6.957l0.25 6.662h5.867l0.25 6.226 0.25 6.234 6.448 0.532v12.787h2.955c2.793 0 2.972 0.179 3.221 3.221 0.25 3.049 0.445 3.238 3.486 3.486 3.049 0.25 3.226 0.428 3.226 3.226 0 2.793 0.156 2.955 2.955 2.955s2.972 0.179 3.221 3.221c0.25 3.037 0.451 3.244 3.443 3.486 2.874 0.242 3.196 0.523 3.437 3.006l0.266 2.746 12.362 0.51 0.266 3.185 0.26 3.191 12.359 0.504 0.266 2.763 0.266 2.757 18.295 0.486 0.555 2.947c0.778 4.154-4.713 3.951 102.754 3.678l96.675-0.242 0.25-6.183 0.25-6.177 5.511-0.532 0.242-12.675 0.238-12.675h2.527c3.736 0 4.311-1.971 4.311-14.987v-11.657h6.015v-25.779h2.911c2.281 0 3.019-0.412 3.425-1.934 0.672-2.527 0.688-13.865 0.023-15.614-0.465-1.221-8.122-1.36-77.773-1.36h-77.254v-6.015h-18.805l-0.266-3.221c-0.25-3.049-0.445-3.244-3.486-3.494l-3.226-0.266v-4.298c0-5.382-1.152-7.63-3.894-7.63h-2.122v-59.292h6.015v-25.788h2.92c3.825 0 3.958-0.504 3.958-14.154v-11.436l6.021-1.131v-24.843h2.083c4.24 0 4.786-1.674 4.786-14.675v-11.968h2.046c3.41 0 3.904-1.64 4.163-13.807l0.242-11.544 2.15-0.279c3.922-0.504 4.291-2.014 4.291-17.454v-14.389l6.448-0.532 0.473-25.351h5.975v-12.891c0-12.454 0.059-12.891 1.772-12.891 4.795 0 5.097-0.833 5.097-13.779 0-11.257 0.104-12.004 1.646-12.004 4.277 0 4.374-0.266 4.374-13.312v-12.275l2.928-0.552c3.796-0.717 3.948-1.252 3.948-14.146v-10.931l2.799-0.821 2.793-0.828 0.242-12.153 0.242-12.161 2.886-0.545c3.678-0.688 3.91-1.585 3.929-15.329l0.016-10.954h2.096c3.134 0 3.451-1.116 3.916-13.753 0.406-11.106 0.51-11.615 2.299-11.864 3.694-0.526 4.123-2.214 4.446-17.433l0.297-14.425 5.412-0.523 0.473-25.351h2.387c4.163 0 4.446-0.995 4.446-15.645v-13.575h-61.448c-60.874 0-61.442 0.016-61.442 1.721zM1205.323 87.472v5.156h-2.92c-3.818 0-3.951 0.498-3.951 14.198v11.477l-5.593 0.54-0.242 12.675-0.238 12.675h-2.527c-3.723 0-4.311 1.971-4.311 14.552 0 10.114-0.146 11.229-1.5 11.243-3.714 0.031-4.062 1.123-4.512 13.91l-0.428 12.275-2.572 0.445c-3.344 0.574-3.64 2.068-3.773 18.688l-0.104 13.104h-6.015v25.683l-6.448 0.532-0.242 12.625-0.238 12.625-5.545 0.532-0.473 25.351h-2.889c-3.789 0-3.938 0.51-3.938 14.198v11.477l-5.584 0.54-0.473 25.351h-2.527c-3.732 0-4.304 1.965-4.304 14.98v11.657h-2.046c-3.41 0-3.904 1.64-4.163 13.811-0.238 11.116-0.309 11.553-2.113 11.806-3.708 0.526-4.13 2.2-4.43 17.483l-0.297 14.477h-5.874v25.683l-6.443 0.532-0.473 25.248-5.545 0.532-0.242 12.675-0.238 12.675h-2.896c-3.789 0-3.938 0.51-3.938 14.154v11.436l-6.015 1.131v24.843h-2.083c-4.24 0-4.792 1.674-4.792 14.669v11.968h-2.096c-3.134 0-3.451 1.116-3.916 13.753l-0.428 11.598-2.335 0.272c-3.317 0.383-4.1 4.015-4.109 19.278l-0.006 12.675h-6.015v25.683l-6.448 0.532-0.242 12.675c-0.221 11.778-0.351 12.675-1.861 12.675-4.257 0-4.337 0.266-4.337 13.413v12.374l341.602-0.437 0.25-6.234c0.221-5.429 0.456-6.226 1.861-6.226 4.24 0 4.325-0.279 4.325-13.413v-12.367h2.083c4.24 0 4.792-1.679 4.792-14.623v-11.912l5.584-0.54 0.473-25.351h2.527c1.617 0 2.844-0.603 3.412-1.662 1.252-2.335 1.141-14.928-0.139-16.207-0.789-0.789-25.629-1.035-106.566-1.035h-105.528v-9.884c0-9.189 0.121-9.884 1.656-9.884 3.736 0 4.365-2.001 4.365-14.059v-11.36l2.793-0.828c3.457-1.019 3.84-2.533 3.98-15.645 0.092-8.945 0.231-9.669 1.757-9.669 3.91 0 4.365-1.772 4.365-17.254v-14.546h2.403c4.136 0 4.471-1.062 4.471-14.356v-12.288h6.015v-25.675l6.448-0.532 0.25-6.226 0.25-6.234h187.27v-2.829c0-2.444 0.378-2.939 2.799-3.648l2.793-0.828 0.428-12.46c0.412-11.991 0.504-12.476 2.299-12.726 3.552-0.51 4.123-2.379 4.439-14.477 0.297-11.413 0.309-11.468 2.335-11.468 3.289 0 3.812-2.392 3.812-17.512v-14.181l6.448-0.532v-18.044l-186.917-0.441v-3.375c0-3.185 0.162-3.4 2.793-3.648l2.793-0.266 0.428-12.884 0.437-12.884 2.565-0.445c3.347-0.574 3.644-2.068 3.775-18.688l0.098-13.11h6.021v-25.779h2.913c3.825 0 3.958-0.498 3.958-14.198v-11.47l5.593-0.54 0.238-12.675c0.242-12.542 0.26-12.675 2.189-12.675 2.498 0 4.015-1.531 4.015-4.039v-1.971l213.553-0.441 0.266-3.177c0.242-2.874 0.517-3.196 3.006-3.437l2.746-0.266 0.242-12.675 0.238-12.675h2.068c4.217 0 4.763-1.691 4.763-14.669 0-11.229 0.098-11.968 1.64-11.968 4.374 0 4.374 0 4.374-16.42v-15.38h6.876v-22.345h-342.036v5.156zM1638.458 87.472c0 5.141-0.006 5.156-2.552 5.156-3.736 0-4.325 1.959-4.325 14.501v11.175l-5.584 0.54-0.242 12.675c-0.242 12.663-0.242 12.675-2.261 12.675-3.665 0-4.316 1.973-4.669 14.286-0.301 10.401-0.486 11.495-1.9 11.495-3.818 0-4.257 1.824-4.257 17.632v14.923l-6.448 0.532-0.473 25.351h-5.968v25.788h-2.92c-3.825 0-3.958 0.498-3.958 14.198v11.47l-5.584 0.54-0.473 25.351h-2.886c-3.694 0-3.916 0.821-3.935 14.772l-0.013 10.902-5.593 0.54-0.238 12.675c-0.238 12.447-0.272 12.675-2.15 12.69-4.091 0.026-4.365 0.833-4.756 14.1-0.342 11.324-0.523 12.525-1.912 12.525-4.246 0-4.263 0.064-4.263 16.42v15.38h-6.876v25.675l-6.443 0.532-0.473 25.248-5.545 0.54-0.238 12.675-0.242 12.675h-2.889c-3.796 0-3.938 0.51-3.938 14.198v11.47l-5.593 0.54-0.238 12.589-0.242 12.589-2.902 0.545c-3.796 0.717-3.935 1.208-3.935 14.745v11.528h-2.037c-3.41 0-3.904 1.64-4.163 13.807-0.231 11.116-0.309 11.559-2.113 11.812-3.702 0.526-4.123 2.2-4.43 17.483l-0.289 14.477h-5.874v25.675l-6.448 0.532-0.242 12.625-0.238 12.625-5.545 0.54-0.242 12.675c-0.238 12.555-0.254 12.675-2.195 12.675-4.538 0-4.943 1.195-4.683 13.762l0.242 11.589 341.602 0.437v-12.897h2.403c4.115 0 4.471-1.103 4.471-13.871v-11.806l5.584-0.54 0.473-26.208h2.889c3.789 0 3.938-0.51 3.938-14.198v-11.47l5.584-0.54v-18.053l-212.693-0.437v-9.876c0-9.831 0.013-9.884 2.037-9.884 3.694 0 4.335-1.96 4.7-14.286 0.297-10.401 0.48-11.495 1.893-11.495 3.644 0 4.263-2.062 4.263-14.247v-11.535h2.046c3.685 0 4.326-1.96 4.699-14.286 0.297-9.919 0.526-11.499 1.744-11.509 3.597-0.031 3.961-1.195 4.417-13.915l0.428-12.275 2.572-0.445c3.244-0.564 3.633-2.2 3.773-15.682 0.098-9.935 0.134-10.098 2.074-10.098 3.457 0 4.042-1.531 4.042-10.49v-8.419h187.345v-3.006c0-2.609 0.272-3.006 2.083-3.006 4.212 0 4.792-1.713 4.792-14.154v-11.45l5.968-1.116 0.242-12.64 0.242-12.646 2.15-0.279c3.789-0.486 4.298-2.189 4.298-14.495 0-11.36 0.013-11.441 1.971-11.441 3.627 0 4.042-1.372 4.042-13.493v-11.425h-187.345v-3.39c0-3.295 0.089-3.397 3.226-3.648l3.221-0.266 0.242-13.059 0.238-13.053 5.545-0.532 0.238-15.682 0.242-15.69h6.835v-25.675l6.448-0.532 0.242-12.625 0.238-12.625 5.545-0.532 0.473-25.248 2.766-0.266c2.281-0.229 2.92-0.754 3.59-3.058l0.821-2.785 212.35-0.441 0.26-3.177c0.242-2.874 0.523-3.196 3.006-3.437l2.746-0.266 0.473-25.351h2.527c3.732 0 4.304-1.965 4.304-14.98 0-11.589 0.016-11.657 1.973-11.657 3.627 0 4.042-1.38 4.042-13.498 0-10.857 0.080-11.425 1.713-11.425 1.651 0 1.721-0.574 1.721-14.61v-14.61h-338.595v5.156zM702.379 104.395c-1.103 0.289-1.506 1.268-1.506 3.685 0 2.98 0.185 3.25 1.934 2.82 3.775-0.927 6.205-5.573 3.457-6.632-1.316-0.51-1.531-0.498-3.888 0.121zM580.193 106.873c-2.816 2.807-1.759 6.945 1.656 6.546 2.928-0.348 3.006-0.456 3.006-4.123 0-4.149-1.934-5.15-4.662-2.422zM697.433 129.484c-2.92 0.51-2.995 0.631-2.712 3.961 0.526 6.11 5.651 5.15 5.804-1.103 0.053-2.001 0.053-3.574 0-3.519-0.045 0.064-1.441 0.351-3.095 0.649zM693.758 155.027c-0.378 0.378-1.733 0.709-3.015 0.726-2.122 0.035-2.349 0.363-2.594 3.694-0.309 4.253 3.888 5.609 5.874 1.893 1.041-1.947 0.806-7.402-0.266-6.31zM626.318 155.982c-2.613 0.324-2.793 0.555-2.793 3.73 0 3.752 2.055 4.646 4.662 2.033 1.049-1.049 2.105-6.863 1.141-6.25-0.121 0.080-1.477 0.297-3.015 0.486zM631.783 164.218c-2.771 2.023-1.531 6.189 1.842 6.189 1.537 0 2.793-0.297 2.793-0.644 0-0.355 0-2.001 0-3.656 0-3.302-1.738-4.002-4.633-1.89zM687.26 180.737c-0.080 0.495-1.208 0.834-2.502 0.776-2.939-0.139-3.406 0.54-2.961 4.344 0.311 2.682 0.631 3.019 2.867 3.019 2.928 0 3.561-1.158 3.088-5.709-0.188-1.817-0.402-2.913-0.486-2.429zM616.653 185.439c0 5.611 5.169 4.713 6.205-1.072 0.402-2.243 0.254-2.365-2.889-2.365-3.302 0-3.314 0.023-3.314 3.437zM624.073 191.674c-1.145 4.263-0.739 4.943 2.896 4.943h3.437v-3.443c0-4.181-5.281-5.439-6.33-1.5zM615.937 206.594c-0.080 0.552-1.103 0.776-2.389 0.523-2.763-0.526-3.53 0.618-3.082 4.525 0.309 2.682 0.627 3.023 2.867 3.023 2.928 0 3.559-1.158 3.088-5.718-0.188-1.817-0.406-2.879-0.486-2.349zM618.864 216.875c-2.734 2.727-1.757 6.088 1.656 5.681 2.867-0.335 3.006-0.51 3.006-3.694 0-3.714-2.068-4.592-4.662-1.992zM609.523 232.383c-0.383 0.383-1.738 0.712-3.006 0.726-2.113 0.026-2.34 0.361-2.591 3.678-0.301 4.246 3.892 5.601 5.874 1.893 1.049-1.959 0.806-7.399-0.279-6.302zM546.728 243.234c-0.726 2.717-0.644 7.269 0.121 6.234 0.348-0.473 1.789-0.865 3.205-0.865 2.422 0 2.594-0.231 2.844-3.648 0.311-4.379-5.058-5.874-6.168-1.721zM613.044 242.375c-3.14 2.49-2.486 5.798 1.152 5.798 3.302 0 3.314-0.023 3.314-3.437 0-3.702-1.668-4.588-4.467-2.365zM540.737 267.653c-0.311 0.311-0.545 2.34-0.51 4.512 0.035 2.166 0.242 3.516 0.459 2.983s1.383-0.761 2.604-0.526c2.727 0.523 3.51-0.621 3.049-4.529-0.348-2.939-3.665-4.386-5.611-2.444zM535.347 293.524c-2.896 1.912-1.839 6.216 1.531 6.216 3.263 0 3.289-0.026 3.289-3.443 0-3.494-2.001-4.646-4.821-2.775zM649.31 320.58c0 3.519 4.298 4.976 5.497 1.861 1.455-3.786 0.635-5.519-2.49-5.295-2.867 0.2-3.006 0.363-3.006 3.437zM528.786 319.575c-3.101 1.802-2.001 6.801 1.5 6.801 2.991 0 3.006-0.023 3.006-3.865 0-4.109-1.182-4.875-4.506-2.939zM642.435 347.006c0 5.422 5.394 4.861 6.177-0.649 0.393-2.727 0.335-2.793-2.886-2.793-3.263 0-3.289 0.026-3.289 3.443zM641.716 368.152c-0.080 0.552-1.103 0.776-2.389 0.526-2.763-0.526-3.53 0.613-3.082 4.525 0.311 2.682 0.631 3.019 2.867 3.019 2.928 0 3.561-1.158 3.088-5.709-0.188-1.824-0.402-2.879-0.486-2.357zM574.758 369.108c-2.619 0.324-2.793 0.555-2.793 3.73 0 3.752 2.052 4.646 4.662 2.033 1.049-1.049 2.105-6.863 1.136-6.25-0.121 0.080-1.477 0.297-3.006 0.486zM579.411 377.652c-2.001 1.992-0.517 6.796 2.156 7.003 3.281 0.25 3.916-0.584 3.451-4.554-0.348-2.941-3.663-4.386-5.609-2.444zM635.543 393.699c-0.242 0.25-1.597 0.613-3.006 0.793-4.002 0.526-4.467 7.503-0.498 7.503 3.076 0 4.605-2.236 4.217-6.14-0.146-1.437-0.465-2.41-0.712-2.166zM565.090 398.571c0 5.253 5.29 4.344 6.226-1.072 0.389-2.243 0.242-2.365-2.913-2.365-3.302 0-3.314 0.023-3.314 3.437zM572.849 404.533c-1.31 2.444-1.164 7.207 0.188 6.364 0.59-0.363 2.046-0.678 3.221-0.694 1.906-0.026 2.178-0.441 2.416-3.678 0.297-4.177-3.888-5.611-5.828-1.988zM564.372 419.718c-0.080 0.552-1.103 0.776-2.387 0.523-2.766-0.526-3.54 0.613-3.088 4.525 0.311 2.682 0.631 3.023 2.867 3.023 2.928 0 3.561-1.158 3.088-5.718-0.188-1.817-0.402-2.879-0.486-2.349zM567.302 429.994c-2.734 2.734-1.757 6.093 1.656 5.687 2.861-0.335 3.006-0.51 3.006-3.694 0-3.719-2.068-4.592-4.662-2.001zM557.97 445.491c-0.369 0.383-1.728 0.709-3.006 0.726-2.122 0.031-2.349 0.363-2.594 3.694-0.309 4.246 3.888 5.601 5.874 1.893 1.041-1.947 0.806-7.402-0.272-6.31zM495.192 454.997c-0.311 0.311-0.564 2.34-0.562 4.506 0.006 2.172 0.297 3.559 0.644 3.088s1.595-0.84 2.775-0.821c2.753 0.053 3.181-0.618 2.746-4.325-0.348-2.941-3.665-4.392-5.611-2.444zM561.015 455.505c-2.552 3.221-1.83 5.798 1.617 5.798 3.302 0 3.314-0.023 3.314-3.437 0-3.627-2.857-4.994-4.929-2.365zM488.634 481.867c-1.293 2.416-1.17 7.212 0.162 6.384 0.577-0.355 2.028-0.672 3.221-0.694 3.694-0.080 3.789-7.345 0.104-7.345-1.691 0-2.913 0.577-3.486 1.656zM483.079 507.34c-2.734 2.734-1.757 6.093 1.656 5.687 2.867-0.335 3.006-0.51 3.006-3.694 0-3.719-2.068-4.595-4.662-2.001zM600.539 530.669c-2.619 0.324-2.793 0.562-2.793 3.732 0 3.748 2.052 4.646 4.662 2.028 1.049-1.049 2.105-6.861 1.136-6.25-0.117 0.080-1.472 0.297-3.006 0.486zM477.266 532.847c-3.14 2.49-2.486 5.798 1.145 5.798 3.304 0 3.317-0.023 3.317-3.437 0-3.702-1.668-4.588-4.467-2.365zM590.87 560.133c0 5.253 5.29 4.337 6.226-1.078 0.393-2.236 0.242-2.365-2.911-2.365-3.304 0-3.317 0.023-3.317 3.443zM523.192 581.374c-2.676 0.335-2.793 0.51-2.793 4.163 0 4.187 1.922 5.201 4.662 2.461 1.041-1.041 2.113-7.728 1.141-7.107-0.121 0.076-1.477 0.297-3.015 0.48zM590.152 581.196c-0.080 0.473-1.402 0.865-2.933 0.857-1.707-0.006-2.763 0.406-2.712 1.066 0.045 0.59 0.139 2.23 0.213 3.648 0.117 2.269 0.441 2.578 2.734 2.578 3.023 0 3.656-1.136 3.181-5.709-0.188-1.824-0.402-2.925-0.486-2.444zM527.847 590.779c-2.105 2.105-0.51 6.812 2.378 7.008 3.559 0.242 4.015-0.363 3.356-4.43-0.498-3.058-3.773-4.529-5.724-2.565zM583.738 607.069c-0.378 0.389-1.733 0.712-3.006 0.726-2.113 0.026-2.34 0.355-2.584 3.678-0.309 4.253 3.888 5.609 5.874 1.893 1.049-1.959 0.806-7.399-0.283-6.302zM513.523 611.692c0 5.253 5.29 4.344 6.226-1.072 0.393-2.243 0.242-2.365-2.911-2.365-3.302 0-3.317 0.023-3.317 3.437zM520.971 616.56c-0.311 0.311-0.564 2.34-0.562 4.512 0.006 2.166 0.297 3.552 0.644 3.082s1.796-0.857 3.209-0.865c2.416 0 2.594-0.229 2.838-3.648 0.254-3.561-3.678-5.539-6.14-3.082zM506.995 634.17c-1.506 2.439 0.776 6.835 3.41 6.58 4.506-0.441 4.615-7.278 0.117-7.278-1.691 0-3.286 0.311-3.519 0.703zM515.94 642.843c-3.142 2.498-2.486 5.804 1.145 5.804 3.302 0 3.314-0.026 3.314-3.443 0-3.694-1.662-4.582-4.462-2.365zM500.638 663.257c0 4.181 5.281 5.439 6.33 1.5 1.145-4.263 0.739-4.943-2.889-4.943h-3.443v3.443zM443.628 668.124c-0.318 0.311-0.545 2.34-0.51 4.506 0.031 2.172 0.242 3.523 0.451 3.019s1.484-0.761 2.838-0.564c3.034 0.451 3.59-0.389 2.941-4.392-0.504-3.058-3.773-4.529-5.724-2.565zM508.86 668.91c-2.734 2.734-1.757 6.088 1.656 5.681 2.867-0.335 3.006-0.51 3.006-3.694 0-3.714-2.068-4.592-4.662-1.992zM437.067 694.992c-1.31 2.444-1.164 7.212 0.188 6.364 0.59-0.361 2.037-0.672 3.221-0.688 1.906-0.026 2.176-0.441 2.416-3.678 0.297-4.177-3.888-5.611-5.828-1.992zM430.688 721.338c-1.705 4.43 0.139 9.809 3.371 9.809 2.033 0 2.122-0.229 2.122-5.593v-5.584h-2.49c-1.477 0-2.699 0.555-3.006 1.369zM178.94 797.033c-0.311 0.311-0.568 1.848-0.568 3.406v2.82l-13.319 0.51-0.266 2.74c-0.238 2.389-0.618 2.775-3.006 3.006-2.498 0.242-2.766 0.564-3.015 3.486-0.25 3.043-0.428 3.226-3.205 3.226-3.992 0-4.008 0.162-3.678 25.97 0.301 23.46 0.545 24.735 4.687 24.735 1.588 0 2.046 0.459 2.046 2.083 0 3.464 2.137 4.792 7.747 4.792h5.039l0.532 6.443 13.325 0.504v2.451c0 3.281 0.84 3.494 13.821 3.494 10.649 0 11.101 0.076 11.101 1.772 0 4.1 1.424 5.097 7.278 5.097h5.506l0.266 2.799c0.242 2.541 0.574 2.832 3.708 3.281l3.443 0.495-3.443 0.369c-3.155 0.342-3.464 0.599-3.708 3.155l-0.266 2.799h-26.416l-0.272-2.365c-0.207-1.824-0.91-2.552-3.064-3.191-2.706-0.793-2.793-0.974-2.793-5.429 0-8.369 1.303-7.927-23.23-7.927h-21.459v13.807c0 14.825 0.523 17.131 3.894 17.131 1.668 0 2.119 0.445 2.119 2.081 0 3.714 0.887 4.795 3.904 4.795 2.689 0 2.879 0.193 3.134 3.221 0.242 2.928 0.517 3.25 3.015 3.486 2.389 0.238 2.771 0.621 3.006 3.015l0.266 2.74 6.656 0.25c5.953 0.229 6.662 0.428 6.662 1.934 0 1.639 0.778 1.685 28.785 1.685 28.002 0 28.794-0.045 28.794-1.685 0-1.491 0.709-1.707 6.226-1.934l6.234-0.25 0.266-2.793c0.242-2.555 0.517-2.793 3.226-2.793 2.874 0 2.947-0.092 2.947-3.437v-3.443h3.443c3.356 0 3.437-0.076 3.437-3.006 0-2.389 0.342-3.006 1.646-3.006 4.478 0 4.367 0.564 4.367-22.867v-21.822h-2.955c-2.793 0-2.972-0.179-3.221-3.221-0.25-3.037-0.451-3.244-3.443-3.486-2.98-0.242-3.191-0.456-3.437-3.437-0.25-2.991-0.456-3.196-3.486-3.443-2.763-0.231-3.221-0.564-3.221-2.335 0-3.023-2.379-3.84-11.116-3.84h-7.792v-2.537c0-1.506-0.613-2.889-1.506-3.41-1.049-0.618 3.789-0.887 16.331-0.898l17.831-0.026v-14.534c0-16.938-0.076-17.255-3.904-17.255-2.689 0-2.874-0.196-3.134-3.226-0.242-2.928-0.51-3.25-3.006-3.486-2.389-0.231-2.775-0.618-3.015-3.006l-0.26-2.74-6.234-0.25c-6.162-0.25-6.226-0.279-6.226-2.619 0-4.425-0.076-4.43-29.247-4.43-14.959 0-27.443 0.254-27.756 0.568zM391.869 797.583c-0.242 0.631-0.333 4.802-0.188 9.252l0.242 8.097 2.672 0.26c2.604 0.25 2.695 0.402 3.226 5.503 0.618 5.908 1.588 7.554 4.467 7.554 1.685 0 2.033 0.51 2.261 3.226 0.242 2.939 0.51 3.25 3.058 3.494 2.78 0.266 2.793 0.297 2.793 4.994 0 6.088 1.056 8.052 4.325 8.052 2.541 0 2.552 0.026 2.552 5.091 0 5.422 1.316 7.8 4.311 7.8 1.234 0 1.668 0.746 1.869 3.226 0.242 3.037 0.451 3.238 3.451 3.486l3.185 0.26 0.25 5.755c0.242 5.614 0.311 5.774 2.939 6.539 2.498 0.73 2.726 1.141 3.168 5.435 0.532 5.169 1.537 6.863 4.311 7.261 1.861 0.266 1.868 0.348 2.096 24.545l0.231 24.279h37.788v-54.999h2.913c3.367 0 3.938-1.197 3.951-8.382l0.013-4.506h2.955c2.799 0 2.978-0.179 3.226-3.226 0.229-2.706 0.613-3.263 2.416-3.501 3.185-0.406 4.291-2.49 4.291-8.052v-4.988h2.911c3.371 0 3.946-1.197 3.958-8.382l0.013-4.506h3.006c2.933 0 3.006-0.080 3.006-3.443 0-3.235 0.149-3.437 2.533-3.437 3.146 0 3.371-0.369 4.050-6.801 0.445-4.224 0.834-5.23 2.068-5.23 3.732 0 4.246-0.833 4.246-6.87v-5.828l2.995-0.564c3.425-0.644 4.419-2.838 3.584-7.948-0.712-4.365 0.618-4.142-25.212-4.142-27.129 0-26.068-0.324-26.068 7.896 0 4.263-0.134 4.566-2.083 4.566-3.464 0-4.792 2.137-4.792 7.741v5.039l-2.793 0.272c-2.533 0.242-2.82 0.562-3.051 3.397-0.229 2.695-0.613 3.196-2.816 3.633-2.604 0.517-2.816 0.812-3.784 5.182-0.406 1.868-0.789 2.243-1.531 1.506-0.545-0.545-2.068-0.99-3.397-0.99-2.318 0-2.403-0.156-2.403-4.35 0-5.394-1.152-7.683-3.84-7.683-1.766 0-2.109-0.459-2.335-3.221-0.25-3.043-0.445-3.238-3.494-3.486l-3.221-0.266v-12.793h-2.955c-2.799 0-2.978-0.175-3.226-3.221l-0.266-3.221-21.725-0.231c-17.537-0.188-21.805-0.013-22.158 0.927zM683.467 797.365c-0.887 0.526-1.5 1.934-1.5 3.428 0 2.513-0.045 2.541-4.943 2.552-5.828 0.016-6.941 0.574-7.827 3.929-0.428 1.617-1.316 2.604-2.486 2.771-2.717 0.402-3.719 2.122-4.263 7.409-0.4 3.828-0.797 4.786-2.016 4.786-4.229 0-4.253 0.067-4.253 16.42v15.38h5.945l0.242 6.656 0.25 6.662 3.221 0.266c3.049 0.25 3.221 0.428 3.221 3.221 0 2.785 0.168 2.961 2.92 2.961 2.623 0 2.967 0.283 3.457 2.913 0.672 3.559 1.799 3.938 11.842 3.948l7.468 0.013 0.266 2.793 0.272 2.799 9.669 0.242c8.597 0.213 9.669 0.406 9.669 1.766 0 3.073 2.010 4.417 7.439 4.97 4.969 0.51 5.312 0.688 5.777 3.029 0.389 1.906 1.103 2.604 3.088 3 2.349 0.469 2.601 0.833 2.601 3.847v3.33h-32.657v-3.015c0-2.867-0.139-3.006-3.006-3.006h-3.006v-12.891h-38.713l0.238 15.682 0.242 15.69 2.672 0.254c2.572 0.25 2.699 0.451 3.168 5.007 0.54 5.236 1.537 6.958 4.257 7.364 1.17 0.175 2.055 1.154 2.486 2.766 0.944 3.574 1.906 3.91 11.263 3.935 7.801 0.013 8.376 0.134 8.376 1.733 0 1.685 0.574 1.721 28.794 1.721s28.785-0.035 28.785-1.721c0-1.551 0.574-1.721 5.925-1.721 6.168 0 6.964-0.498 6.964-4.316 0-1.164 0.739-1.662 2.799-1.861 2.552-0.242 2.82-0.552 3.058-3.494 0.242-2.925 0.498-3.221 2.763-3.221 3.486 0 4.277-2.014 4.277-10.931v-7.613l5.584-1.64 0.242-9.884c0.311-12.46 0.023-13.747-3.146-13.747-2.387 0-2.444-0.134-2.98-5.804-0.562-5.988-1.799-7.948-5.021-7.948-0.927 0-1.551-0.627-1.551-1.551 0-3.109-1.992-4.439-7.521-5.010l-5.371-0.562v-5.774h-9.454c-9.432 0-9.454-0.006-9.454-2.083 0-1.152-0.603-2.689-1.332-3.419-1.208-1.208 0.627-1.36 19.125-1.564l20.452-0.238 0.242-11.302c0.254-12.326-0.301-14.049-4.595-14.049-1.951 0-2.083-0.301-2.083-4.558 0-5.15-1.164-7.224-4.298-7.624-1.543-0.196-2.227-0.879-2.439-2.429-0.437-3.226-1.447-3.828-7.278-4.298-4.652-0.369-5.358-0.666-5.597-2.295-0.574-4.050-1.228-4.13-31.878-4.365-18.948-0.134-29.394 0.098-30.376 0.688zM908.378 797.538c-0.238 0.618-0.324 9.225-0.193 19.141l0.238 18.022 38.241 0.459v106.537h44.688v-106.473l18.932-0.26c15.69-0.221 19.088-0.48 19.782-1.551 1.019-1.558 0.712-34.769-0.335-35.802-1.293-1.293-120.857-1.357-121.353-0.067zM1167.23 797.030c-0.311 0.311-0.574 33.005-0.574 72.624v72.050h109.137v-35.235h-70.468v-19.743l64.026-0.451 0.238-17.753c0.193-15.296 0.035-17.94-1.141-19.125-1.206-1.197-5.156-1.37-32.245-1.37h-30.876v-12.866l70.039-0.451v-37.811l-53.779-0.229c-29.575-0.121-54.040 0.041-54.358 0.361zM1399.548 869.062v72.633h37.811l0.185-34.163c0.098-18.786 0.309-29.921 0.459-24.735 0.297 9.824 0.658 10.729 4.298 10.761 1.868 0.013 1.934 0.297 1.934 8.103 0 10.072 0.266 10.815 3.929 10.815h2.886l0.242 9.241 0.242 9.234 2.799 0.828c2.695 0.789 2.793 0.983 2.793 5.371v4.548h15.897c15.166 0 15.897-0.080 15.897-1.668 0-1.31 0.703-1.728 3.226-1.934l3.221-0.266 0.25-6.226c0.207-5.198 0.498-6.234 1.721-6.25 3.457-0.026 4.033-1.37 4.478-10.481l0.428-8.841 2.335-0.266c2.939-0.342 4.1-3.946 4.109-12.78l0.006-6.177 5.584-0.54 0.473-9.454c0.26-5.198 0.555 7.277 0.644 27.714l0.175 37.169h38.701l-0.231-71.685c-0.127-39.428-0.552-72.002-0.941-72.402-0.938-0.938-55.207-0.938-56.146 0-0.4 0.393-0.844 4.719-1.007 9.616l-0.297 8.903-5.435 0.526-0.242 9.152-0.242 9.146-2.886 0.545c-3.523 0.666-3.898 1.802-3.922 11.886-0.013 6.849-0.156 7.521-1.668 7.521-3.479 0-4.35 2.195-4.512 11.45l-0.149 8.746-0.495-6.443c-0.486-6.38-0.517-6.46-3.286-7.277l-2.793-0.821v-7.613c0-8.962-0.778-10.931-4.325-10.931h-2.552v-7.792c0-8.782-0.819-11.116-3.894-11.116-2.062 0-2.122-0.185-2.224-6.656-0.149-9.952-0.685-11.671-3.938-12.631-2.347-0.688-2.785-1.262-3.006-3.871l-0.254-3.051-50.274-0.456v72.633zM1698.429 797.043c-0.873 0.231-1.699 1.595-2.028 3.339-0.552 2.913-0.618 2.947-5.021 2.947-5.058 0-7.12 1.182-7.526 4.298-0.196 1.545-0.879 2.227-2.429 2.429-3.134 0.402-4.298 2.474-4.298 7.624 0 4.257-0.134 4.558-2.083 4.558-4.447 0-4.846 1.472-4.592 17.055l0.242 14.315 6.373 0.526 0.242 6.611 0.25 6.611 2.793 0.272c2.552 0.242 2.793 0.51 2.793 3.221 0 2.874 0.092 2.955 3.437 2.955 3.244 0 3.443 0.146 3.443 2.547 0 3.559 1.971 4.325 11.058 4.325h7.734l0.272 2.793 0.266 2.799 9.669 0.242c8.597 0.213 9.669 0.406 9.669 1.766 0 3.196 1.973 4.439 7.948 5.001 5.62 0.523 5.798 0.618 5.798 2.902 0 2.392 1.299 3.41 4.374 3.41 1.351 0 1.646 0.618 1.646 3.437v3.443h-33.519v-3.015c0-2.867-0.139-3.006-3.006-3.006h-3.006v-12.891h-44.688v7.364c0 8.331 0.85 10.683 3.865 10.683 2.004 0 2.091 0.254 2.335 6.662l0.25 6.662 6.443 0.532v4.506c0 5.105 1.176 7.17 4.298 7.572 1.545 0.196 2.227 0.873 2.429 2.429 0.456 3.552 2.379 4.291 11.058 4.291 7.426 0 7.999 0.127 7.999 1.721 0 1.685 0.568 1.721 28.785 1.721 28.002 0 28.794-0.045 28.794-1.685 0-1.491 0.709-1.707 6.226-1.934l6.234-0.25 0.266-2.793c0.221-2.281 0.635-2.793 2.299-2.793 2.619 0 4.741-2.137 4.741-4.792 0-1.414 0.486-2.091 1.5-2.105 3.501-0.026 4.069-1.357 4.512-10.481 0.402-8.273 0.552-8.858 2.299-9.104 2.896-0.412 3.877-2.267 4.357-8.246 0.658-8.179-0.006-9.964-3.665-9.964h-2.991v-8.528c0-9.31-0.828-11.239-4.792-11.239-1.625 0-2.083-0.456-2.083-2.046 0-2.889-1.759-4.008-7.202-4.57-4.548-0.469-4.754-0.599-5.001-3.168l-0.26-2.676-19.331-0.486v-2.911c0-1.597-0.486-3.101-1.078-3.344s8.111-0.465 19.337-0.504l20.409-0.076v-12.367c0-13.154-0.080-13.413-4.374-13.413-1.316 0-1.64-0.618-1.64-3.006 0-2.933-0.080-3.006-3.443-3.006h-3.437v-5.097c0-6.632-1.141-7.8-7.615-7.8-4.807 0-4.935-0.064-5.733-2.793-0.627-2.122-1.437-2.925-3.406-3.339-2.913-0.613-55.917-0.761-58.198-0.156zM210.169 830.659c0 3 1.408 4.471 4.285 4.471 1.772 0 2.392 0.568 3.049 2.793 0.631 2.16 1.369 2.857 3.191 3.064 2.127 0.242 2.365 0.607 2.365 3.656v3.375h-19.656l-0.272-2.793-0.266-2.793-12.46-0.51v-6.58l5.934-0.584c6.079-0.603 6.957-1.208 6.957-4.861 0-1.351 0.618-1.646 3.437-1.646 3.196 0 3.443 0.175 3.443 2.403zM714.624 829.903c0 3.644 0.879 4.271 6.889 4.861l5.88 0.574 0.279 6.345 0.283 6.345h-7.090c-6.425-0.006-7.090-0.156-7.090-1.662 0-3.043-2.34-4.357-7.8-4.357h-5.091v-3.437c0-3.064 0.231-3.443 2.074-3.443 3.732 0 4.802-0.879 4.802-3.958 0-2.82 0.098-2.92 3.437-2.92 2.82 0 3.443 0.297 3.443 1.646zM1728.692 829.903c0 3.656 0.879 4.271 6.952 4.861l5.939 0.584v4.97c0 2.734 0.238 5.584 0.523 6.33 0.451 1.176-0.486 1.36-6.876 1.36-7.288 0-7.392-0.026-7.392-2.119 0-2.816-2.267-3.894-8.111-3.894h-4.786v-3.437c0-3.064 0.231-3.443 2.081-3.443 3.732 0 4.795-0.879 4.795-3.958 0-2.82 0.104-2.92 3.443-2.92 2.816 0 3.437 0.297 3.437 1.646z"></path>
</svg>
