<!-- Generated by IcoMoon.io -->
<svg version="1.1" xmlns="http://www.w3.org/2000/svg" width="1024" height="1024" viewBox="0 0 1024 1024">
<title></title>
<g id="icomoon-ignore">
</g>
<path d="M541.061 472.714v0.985h-5.909v0.985l-0.985 0.985q-1.97 0.985-2.954 0.985h-0.985l-5.909 1.97h-15.756q-5.909-0.985-10.833-1.97t-8.863-2.954q-3.939-0.985-6.894-2.954-2.954-0.985-3.939-1.97 1.97-16.741-13.787-70.904-19.695-67.95-134.916-77.798h-1.97l-1.97 1.97q-7.879 11.818 8.863 76.813 16.741 65.98 132.946 77.798 3.939 41.361 18.711 61.057 15.756 21.665 24.62 25.604l4.924 2.954 1.97-1.97q15.756-14.771 24.62-29.544t11.818-30.528q3.939-19.695 4.924-27.574 116.204-11.818 133.931-77.798 15.756-64.995 7.879-76.813l-1.97-1.97h-1.97q-115.22 9.848-135.9 77.798-15.756 55.148-13.787 71.889-0.985 0.985-2.954 1.97l-0.985 0.985h-1.97zM789.227 217.655q76.813 94.539 76.813 218.621-19.695 237.333-168.398 364.37-148.702 126.052-185.14 135.9-36.437-9.848-185.14-135.9-148.702-127.037-169.382-364.37 1.97-126.052 76.813-216.653l1.97-1.97v-112.266h84.692q-27.574 17.726-54.163 42.345 120.143-62.042 254.074-58.103t236.348 58.103q-27.574-24.62-53.178-42.345h84.692v112.266zM850.283 43.348l-221.576 0.985q-29.544-6.894-58.103-9.848t-57.118-2.954h-0.985q-28.559 0-57.118 3.939-29.544 2.954-58.103 8.863l-222.561-0.985v152.641q-38.407 53.178-58.103 112.266-19.695 61.057-19.695 129.007v0q23.635 267.862 191.048 409.67 164.459 139.84 199.911 146.732l24.62 11.818 23.635-11.818q37.422-7.879 201.881-146.732 83.707-70.904 130.976-173.322t59.087-236.348v0q0-67.95-19.695-129.007-19.695-59.087-58.103-113.251v-151.657zM687.794 577.101q-34.468 35.453-77.798 54.163-44.315 17.726-97.493 18.711-105.372-2.954-174.307-72.874-70.904-68.935-73.859-175.291l0.985-4.924-0.985-5.909q0.985-19.695 4.924-36.437 4.924-17.726 13.787-32.498t22.65-27.574q38.407-39.391 95.524-40.376 16.741 0 31.513 3.939 15.756 2.954 29.544 8.863 26.589 14.771 46.285 38.407l1.97 1.97h4.924l1.97-1.97q18.711-23.635 46.285-38.407 13.787-5.909 28.559-8.863 15.756-3.939 31.513-3.939 9.848 0 18.711 1.97 8.863 0.985 17.726 2.954t16.741 5.909q7.879 2.954 15.756 7.879 7.879 3.939 14.771 9.848 6.894 4.924 12.803 11.818 39.391 38.407 40.376 96.509v10.833q-2.954 106.357-72.874 175.291zM734.079 215.685q-47.269-28.559-104.387-29.544-29.544 0-57.118 7.879-27.574 8.863-52.194 25.604l-1.97 1.97-4.924 2.954-5.909-2.954-0.985-1.97h-0.985q-49.239-33.483-110.296-33.483-56.133 0.985-103.402 29.544-45.3 28.559-70.904 76.813h-0.985q-20.68 54.163-21.665 114.235 0 9.848 0.985 19.695l1.97 19.695q19.695 115.22 105.372 189.079 83.707 73.859 203.85 77.798h3.939q120.143-3.939 203.85-77.798 42.345-37.422 68.935-84.692t36.437-104.387q0.985-6.894 0.985-12.803l0.985-12.803 0.985-13.787q0-60.072-20.68-114.235h-0.985q-12.803-23.635-30.528-42.345-17.726-19.695-40.376-34.468z"></path>
</svg>
