<!-- Generated by IcoMoon.io -->
<svg version="1.1" xmlns="http://www.w3.org/2000/svg" width="1024" height="1024" viewBox="0 0 1024 1024">
<title></title>
<g id="icomoon-ignore">
</g>
<path fill="#0976b9" d="M493.2 97.975c-34.79 2.455-59.152 7.387-92.469 18.717-3.605 1.226-7.329 2.656-8.271 3.175-0.942 0.521-5.23 2.455-9.525 4.303-75.347 32.368-141.586 99.824-170.031 173.161-1.080 2.78-3.011 7.742-4.293 11.026s-2.868 7.906-3.522 10.266c-0.655 2.362-1.634 5.121-2.175 6.131s-1.445 4.041-2.006 6.732c-4.18 19.996-5.242 21.756-18.523 30.586-5.177 3.442-11.063 7.39-13.085 8.777-6.561 4.497-91.621 61.501-100.846 67.579-9.985 6.581-10.902 8.349-6.433 12.395 1.39 1.259 6.456 6.977 11.257 12.704s9.348 11.138 10.108 12.022c8.503 9.898 17.793 20.57 21.189 24.337 2.304 2.557 5.406 6.131 6.891 7.941s7.664 9.024 13.727 16.026c20.331 23.481 23.946 27.733 25.445 29.944 2.649 3.91 3.291 0.905 3.701-17.372 0.491-21.94 0.017-21.409 23.002-25.925 3.635-0.715 5.284-1.47 5.284-2.425 0-1.128-9.905-14.286-11.999-15.942-0.538-0.423-24.504-28.783-27.416-32.441-2.503-3.14 1.070-6.723 14.842-14.881 0.853-0.506 3.734-2.404 6.403-4.22 2.666-1.815 7.155-4.786 9.973-6.604s5.66-3.95 6.314-4.738c1.314-1.581 4.383-1.863 6.398-0.589 0.793 0.504 1.435 2.903 1.657 6.189 0.846 12.617 4.016 41.624 4.814 44.063 0.478 1.46 1.536 6.378 2.351 10.924s2.039 9.935 2.722 11.972c4.066 12.127 3.303 13.118-13.301 17.294-6.823 1.717-13.951 3.396-15.839 3.737-4.769 0.852-4.97 1.599-5.627 20.751-2.578 75.102-2.556 73.773-1.324 74.958 0.66 0.64 5.126 2.644 9.927 4.462 4.801 1.815 9.97 3.895 11.486 4.625s4.497 1.768 6.621 2.311c2.128 0.541 4.086 1.345 4.356 1.78 0.272 0.433 1.632 1.073 3.027 1.418 1.395 0.342 4.812 1.613 7.591 2.819s8.842 3.648 13.47 5.423c4.628 1.777 9.796 3.842 11.486 4.592 19.87 8.815 21.436 8.933 27.308 2.080 5.413-6.317 5.891-5.595-8.656-13.070-31.626-16.247-47.293-24.649-48.537-26.021-1.551-1.717-3.55-9.827-5.69-23.111-0.774-4.801-2.216-12.095-3.205-16.207s-1.796-8.601-1.796-9.976c0-1.375-0.64-4.965-1.42-7.979-2.374-9.162-2.009-9.505 11.156-10.398 11.419-0.778 10.781-1.298 17.795 14.462 16.451 36.951 43.454 74.669 73.722 102.979 10.116 9.462 14.545 13.072 33.174 27.056 10.005 7.512 11.375 9.625 9.94 15.358-0.509 2.032-1.561 13.828-2.344 26.208s-1.843 26.854-2.362 32.16c-0.519 5.308-1.354 16.471-1.858 24.81s-1.51 20.125-2.241 26.187c-0.728 6.065-1.576 16.194-1.886 22.511s-1.193 17.274-1.969 24.349c-0.773 7.075-1.916 19.784-2.538 28.239-1.337 18.138 0.086 15.753-17.070 28.596-11.909 8.915-14.611 11.264-14.671 12.767-0.015 0.38 32.877 0.69 73.095 0.69 58.090 0 73.050-0.237 72.753-1.148-0.418-1.276-7.8-7.462-17.951-15.043-11.385-8.5-10.633-6.841-9.915-21.824 0.34-7.14 1.196-17.738 1.903-23.549s1.74-17.803 2.294-26.648c0.557-8.845 1.606-21.456 2.337-28.025 0.728-6.569 1.747-18.974 2.266-27.567s1.337-18.516 1.823-22.053c0.486-3.537 1.339-10.154 1.893-14.701 1.813-14.875 2.044-15.177 9.6-12.551 12.599 4.378 34.113 8.092 54.673 9.439 17.078 1.118 61.421 0.499 73.050-1.022 15.043-1.966 20.515-2.958 31.089-5.635 14.658-3.709 16.582-3.975 17.78-2.485 1.803 2.242 3.855 15.726 4.869 32.011 0.551 8.845 1.589 21.25 2.309 27.567 0.718 6.317 1.744 18.309 2.281 26.648s1.566 20.537 2.289 27.106c0.721 6.569 1.78 18.767 2.351 27.106 0.574 8.339 1.267 17.768 1.541 20.955l0.496 5.793-4.018 3.696c-2.213 2.032-8.545 7.281-14.074 11.665-5.531 4.383-10.217 8.485-10.416 9.117-0.284 0.911 14.611 1.148 72.378 1.148 68.448 0 72.718-0.093 72.428-1.589-0.169-0.874-6.461-6.199-13.981-11.834-17.38-13.022-16.222-10.494-18.002-39.302-0.536-8.651-1.576-20.9-2.314-27.217-0.74-6.317-1.77-18.516-2.296-27.106s-1.546-20.583-2.268-26.648c-0.721-6.065-1.76-19.709-2.306-30.324s-1.591-24.878-2.324-31.701c-0.733-6.823-1.591-17.574-1.906-23.891-0.317-6.317-0.73-11.748-0.922-12.068-0.74-1.246 3.525-5.287 12.498-11.861 25.538-18.694 56.891-50.061 71.668-71.693 1.264-1.849 4.366-6.367 6.891-10.041 10.288-14.956 27.003-46.084 28.438-52.958 1.219-5.818 4.056-7.221 14.046-6.921 12.644 0.378 14.435 1.891 11.876 10.041-0.75 2.392-1.606 6.206-1.901 8.483-0.718 5.521-4.849 27.729-7.183 38.592-2.148 10.001-3.449 11.874-10.821 15.555-2.78 1.387-12.083 6.189-20.675 10.665s-19.341 10.054-23.891 12.388c-9.746 5-9.978 5.552-4.94 11.75 4.577 5.624 6.163 6.297 10.096 4.262 1.624-0.841 5.056-2.279 7.626-3.198 5.584-1.994 11.735-4.406 19.836-7.777 3.286-1.37 8.455-3.427 11.486-4.576 9.849-3.731 22.853-8.848 28.025-11.025 2.78-1.171 8.019-3.268 11.647-4.663 7.381-2.84 7.687-3.318 7.143-11.249-0.197-2.883-0.823-22.574-1.387-43.758-1.219-45.763-0.3-41.923-10.655-44.499-8.797-2.189-22.118-5.62-23.981-6.175-2.742-0.821-3.427-4.945-1.644-9.9 2.024-5.615 4.554-16.992 6.478-29.090 0.763-4.801 2.012-12.518 2.777-17.146 0.763-4.628 1.644-13.105 1.956-18.838 0.828-15.174 1.483-15.877 9.295-9.955 2.664 2.019 5.025 3.671 5.25 3.671 0.37 0 12.599 7.958 25.286 16.454 8.325 5.572 8.404 5.34-8.301 24.792-28.345 33.003-28.201 32.763-20.643 34.642 6.752 1.674 16.255 3.988 18.49 4.499 3.15 0.721 3.893 4.534 4.381 22.524 0.254 9.348 0.486 17.103 0.511 17.229 0.264 1.259 3.112-0.385 4.779-2.757 1.931-2.752 10.344-12.573 19.528-22.803 2.072-2.309 6.456-7.43 9.741-11.378s9.487-11.169 13.782-16.046c4.295-4.877 10.912-12.547 14.701-17.050 3.789-4.499 10.406-12.186 14.701-17.081 17.71-20.17 17.67-20.119 17.096-22.401-0.297-1.186-1.256-2.432-2.135-2.767-0.876-0.335-12.473-7.929-25.774-16.872s-28.889-19.362-34.642-23.151c-10.655-7.017-45.896-30.54-52.206-34.843-4.237-2.893-9.316-6.242-13.845-9.137-4.3-2.749-7.636-8.459-8.392-14.369-0.325-2.528-1.223-6.372-2.004-8.545s-1.946-6.1-2.591-8.729c-3.406-13.86-11.494-33.917-22.302-55.315-22.771-45.078-58.303-86.097-100.383-115.88-11.355-8.037-19.175-13.221-19.973-13.238-0.385-0.010-2.56-1.281-4.837-2.827-6.126-4.164-30.55-16.139-39.134-19.185-2.573-0.911-5.467-2.115-6.433-2.671-6.411-3.696-35.422-11.912-60.106-17.023-16.244-3.361-56.561-5.572-76.265-4.182zM535.468 198.596c9.127 1.067 28.204 5.851 32.711 8.2 1.468 0.765 3.223 1.392 3.902 1.397 0.68 0.003 2.334 0.579 3.676 1.281s5.335 2.661 8.873 4.356c12.37 5.919 26.874 15.67 36.505 24.548 1.886 1.737 4.233 3.721 5.214 4.411 1.672 1.168 15.65 17.317 19.938 23.025 33.734 44.947 40.679 111.219 17.163 163.833-2.429 5.439-2.384 5.345-7.327 14.527-19.399 36.039-60.19 68.455-97.983 77.874-2.946 0.735-6.093 1.73-6.989 2.211-0.902 0.484-8.132 1.719-16.073 2.752-58.381 7.584-112.123-13.545-150.023-58.985-10.703-12.833-16.363-22.272-26.049-43.434-19.128-41.795-14.427-104.401 10.904-145.181 1.571-2.528 3.553-5.834 4.401-7.352 5.66-10.091 25.941-31.923 38.194-41.115 35.815-26.874 77.061-37.723 122.962-32.348z"></path>
<path fill="#9dc3da" d="M489.209 94.878c-20.434 1.873-51.548 7.206-63.087 10.816-22.688 7.095-32.358 10.502-30.089 10.592 0.38 0.015 4.308-1.234 8.729-2.772 12.697-4.421 28.473-8.883 37.127-10.499 4.373-0.816 9.336-1.886 11.026-2.377 14.147-4.127 63.757-6.514 86.228-4.149 21.925 2.304 27.466 2.498 13.782 0.476-12.183-1.797-52.455-3.117-63.717-2.085zM573.138 100.769c4.295 0.969 8.183 1.637 8.639 1.483 1.211-0.403-11.728-3.414-14.278-3.321-1.193 0.040 1.35 0.869 5.642 1.838zM584.627 103.156c58.855 13.291 114.9 44.474 158.059 87.942 10.305 10.381 27.952 30.936 32.824 38.235 0.844 1.264 2.429 3.331 3.527 4.595l1.992 2.296-1.498-2.296c-21.771-33.398-58.158-67.297-101.181-94.262-20.469-12.828-52.702-26.376-82.786-34.798-4.598-1.287-9.351-2.291-10.567-2.233-1.861 0.091-1.919 0.171-0.373 0.521zM390.72 117.568c-0.997 0.69-2.845 1.568-4.109 1.954-3.2 0.977-30.774 14.492-35.979 17.637-2.354 1.423-6.904 4.144-10.108 6.050-36.487 21.696-80.981 65.721-103.286 102.203-3.195 5.224-0.551 1.808 7.462-9.648 17.685-25.278 39.502-48.862 61.967-66.982 16.529-13.333 27.063-20.673 43.975-30.636 6.123-3.605 33.078-16.819 36.885-18.080 4.336-1.435 8.2-3.684 6.408-3.726-0.773-0.017-2.218 0.534-3.215 1.221zM506.327 199.692c2.924 0.184 7.473 0.181 10.108-0.005 2.635-0.184 0.242-0.332-5.317-0.33s-7.714 0.151-4.789 0.335zM493.429 200.588c1.39 0.209 3.663 0.209 5.053 0 1.39-0.212 0.252-0.383-2.528-0.383s-3.918 0.171-2.528 0.383zM525.36 200.53c26.036 1.757 59.509 13.722 79.941 28.574 2.374 1.725 2.737 1.838 1.377 0.426-11.952-12.442-59.668-30.010-79.941-29.433-4.549 0.128-4.789 0.204-1.377 0.433zM478.053 202.715c-39.081 8.23-76.816 33.202-99.595 65.9-3.935 5.65-1.284 2.978 3.651-3.676 22.839-30.805 57.465-52.732 96.848-61.325 6.569-1.432 10.912-2.611 9.648-2.621s-6.013 0.768-10.554 1.722zM610.356 232.528c13.51 10.723 25.301 22.799 33.539 34.352 4.711 6.607 7.81 10.426 6.813 8.397-4.897-9.978-32.316-39.453-40.251-43.275-1.916-0.922-1.919-0.916-0.101 0.526zM781.374 237.833c0.373 0.632 2.583 4.044 4.917 7.581 2.331 3.537 5.647 8.797 7.367 11.69 1.717 2.893 3.263 5.121 3.429 4.955 0.599-0.599-15.061-25.374-16.038-25.374-0.194 0-0.048 0.516 0.325 1.148zM232.379 253.287c-3.212 5.164-3.95 7.48-1.007 3.155 2.316-3.404 4.711-7.81 4.245-7.81-0.191 0-1.647 2.095-3.238 4.655zM228.123 260.546c-1.954 3.162-10.607 20.532-9.857 19.784 1.128-1.12 11.338-20.675 10.791-20.675-0.212 0-0.632 0.4-0.934 0.889zM801.023 270.682c2.032 4.044 3.902 7.352 4.156 7.352s-1.203-3.308-3.238-7.352c-2.032-4.044-3.902-7.352-4.156-7.352s1.203 3.308 3.238 7.352zM372.988 276.886c-3.512 5.493-10.345 18.833-9.885 19.293 0.191 0.191 1.508-2.057 2.931-4.995 2.596-5.365 6.302-11.979 9.149-16.325 0.844-1.287 1.322-2.339 1.062-2.339s-1.725 1.964-3.261 4.366zM654.19 282.566c1.143 1.986 2.236 3.457 2.427 3.265 0.398-0.398-3.464-6.879-4.099-6.879-0.224 0 0.526 1.626 1.669 3.613zM214.503 287.692c-0.841 1.763-1.339 3.205-1.108 3.205 0.629 0 3.419-5.624 2.999-6.045-0.199-0.199-1.050 1.080-1.891 2.843zM660.635 295.5c2.075 4.549 3.92 8.125 4.104 7.943 0.415-0.418-6.816-16.219-7.422-16.219-0.249 0 1.246 3.724 3.318 8.276zM813.753 297.76c0.803 2.236 1.616 3.908 1.808 3.716 0.504-0.506-1.677-6.795-2.538-7.329-0.403-0.249-0.073 1.377 0.73 3.61zM210.172 297.954c-2.067 5.363-2.062 5.645 0.033 1.838 1.062-1.931 1.795-3.922 1.626-4.429-0.17-0.506-0.916 0.66-1.659 2.591zM360.867 300.711c-2.067 5.363-2.062 5.645 0.033 1.838 1.062-1.931 1.795-3.922 1.626-4.429s-0.916 0.66-1.659 2.591zM815.802 303.302c0 0.506 0.791 2.367 1.76 4.134s1.76 2.802 1.76 2.296c0-0.506-0.791-2.367-1.76-4.134s-1.76-2.802-1.76-2.296zM665.077 305.14c-0.020 0.506 0.983 3.815 2.233 7.352s2.284 5.758 2.294 4.937c0.020-1.629-4.462-13.792-4.527-12.286zM205.743 308.854c-1.538 3.379-1.246 4.102 0.418 1.030 0.778-1.435 1.244-2.782 1.032-2.991-0.209-0.212-0.861 0.672-1.45 1.961zM356.025 314.068c-0.838 2.616-1.37 4.91-1.183 5.096s1.042-1.78 1.903-4.373c0.861-2.593 1.392-4.887 1.183-5.099-0.212-0.209-1.067 1.76-1.903 4.376zM820.394 315.707c-0.040 0.252 0.733 2.528 1.719 5.053 0.984 2.528 1.8 3.973 1.813 3.215 0.017-1.302-3.376-9.245-3.532-8.271zM669.712 320.302c-0.023 0.758 0.748 4.273 1.717 7.81s1.77 5.604 1.783 4.595c0.013-1.010-0.76-4.524-1.717-7.81s-1.757-5.353-1.78-4.595zM200.655 323.955c-0.821 2.055-1.481 4.449-1.463 5.323 0.015 0.876 0.813-0.68 1.77-3.454 2.052-5.944 1.841-7.233-0.307-1.868zM351.755 331.39c-0.612 3.097-0.931 5.808-0.71 6.027 0.219 0.219 0.896-2.137 1.506-5.232 0.612-3.097 0.931-5.808 0.71-6.027-0.219-0.219-0.896 2.137-1.506 5.232zM824.060 327.259c-0.093 1.387 2.82 9.756 3.25 9.328 0.194-0.197-0.443-2.596-1.415-5.335s-1.797-4.537-1.835-3.996zM196.893 337.329c-0.939 2.766-1.508 5.231-1.264 5.473 0.247 0.247 1.171-1.858 2.059-4.678 2.102-6.67 1.429-7.342-0.798-0.798zM673.549 338.679c0 2.273 0.179 3.205 0.398 2.067 0.222-1.138 0.222-2.999 0-4.134-0.219-1.138-0.398-0.206-0.398 2.067zM350.071 341.436c0 1.77 0.189 2.493 0.42 1.609 0.229-0.884 0.229-2.331 0-3.215-0.232-0.884-0.42-0.161-0.42 1.609zM829.133 346.489c0.838 5.861 3.557 9.155 12.589 15.243 4.653 3.134 9.286 6.279 10.295 6.984s7.274 4.885 13.913 9.286c70.732 46.868 99.517 66.64 100.355 68.931 0.499 1.36 0.936 1.927 0.977 1.264 0.206-3.448-0.148-3.709-58.717-42.769-6.926-4.62-13.236-8.812-14.024-9.318s-14.807-9.897-31.16-20.87c-30.865-20.714-31.464-21.23-33.811-29.208l-0.947-3.215 0.526 3.676zM194.673 346.137c-0.219 4.943 0.039 4.754-68.601 50.433-11.77 7.833-22.013 14.656-22.755 15.162-3.92 2.661-28.969 19.633-36.933 25.024-12.347 8.356-12.347 8.334-1.211 21.071 4.708 5.388 12.284 14.18 16.831 19.543 12.611 14.87 26.295 30.384 26.799 30.384 0.249 0-0.927-1.584-2.609-3.517s-10.343-11.962-19.246-22.282c-8.903-10.32-19.137-22.17-22.743-26.328-9.082-10.479-9.064-10.562 3.784-19.019 5.685-3.741 14.059-9.311 18.606-12.372 4.549-3.064 10.751-7.244 13.782-9.286s7.168-4.812 9.19-6.151c2.022-1.339 15.667-10.497 30.324-20.348 14.656-9.849 31.195-20.912 36.754-24.582 16.932-11.176 19.709-13.913 18.589-18.332-0.355-1.405-0.481-1.272-0.564 0.602zM674.896 357.517c0.259 7.075 0.627 13.037 0.818 13.249 0.564 0.632 0.166-12.783-0.589-19.679-0.459-4.2-0.539-1.964-0.229 6.433zM349.315 363.028c0.003 9.097 0.141 12.695 0.304 7.994 0.169-4.701 0.169-12.143 0-16.539-0.17-4.396-0.304-0.551-0.304 8.545zM674.503 376.813c0.005 3.031 0.176 4.162 0.38 2.51s0.199-4.131-0.010-5.514c-0.209-1.38-0.378-0.030-0.373 3.002zM350.089 384.162c0.010 2.022 0.197 2.74 0.418 1.596 0.222-1.141 0.212-2.795-0.017-3.676-0.229-0.878-0.41 0.058-0.4 2.080zM673.511 387.38c0 1.77 0.189 2.493 0.42 1.609 0.229-0.884 0.229-2.331 0-3.215-0.232-0.884-0.42-0.161-0.42 1.609zM350.872 389.218c-0.010 0.758 0.582 3.653 1.312 6.433l1.329 5.053-0.524-4.487c-0.526-4.497-2.082-9.633-2.117-6.999zM670.613 400.313c-0.652 2.548-1.012 4.807-0.8 5.021s0.924-1.697 1.576-4.245 1.012-4.807 0.8-5.021c-0.214-0.214-0.924 1.697-1.576 4.245zM354.001 403.919c0.473 3.386 4.008 13.185 4.081 11.315 0.025-0.599-0.42-2.253-0.984-3.676-0.566-1.423-1.596-4.446-2.289-6.723-1.067-3.512-1.191-3.651-0.808-0.919zM666.449 414.856c-0.896 1.981-1.405 4.157-1.138 4.834 0.328 0.813 0.516 0.669 0.564-0.426 0.040-0.909 0.722-2.913 1.518-4.449 0.798-1.538 1.274-2.969 1.062-3.18s-1.114 1.239-2.006 3.22zM662.443 426.153c-1.171 2.53-1.966 4.761-1.765 4.963 0.199 0.199 1.329-1.699 2.513-4.225s1.977-4.759 1.765-4.963c-0.212-0.206-1.345 1.694-2.513 4.225zM360.708 423.674c0.463 1.010 1.075 2.457 1.354 3.215 0.443 1.191 0.521 1.183 0.584-0.055 0.040-0.786-0.569-2.233-1.354-3.215-1.405-1.755-1.415-1.752-0.584 0.055zM362.737 429.112c-0.033 1.458 9.19 18.153 13.994 25.343 22.682 33.934 58.795 58.878 98.338 67.922 4.937 1.131 9.447 1.899 10.021 1.707 0.571-0.191-2.435-1.078-6.679-1.971-47.986-10.083-87.147-40.105-111.025-85.115-2.545-4.801-4.638-8.351-4.648-7.885zM182.263 430.403c-0.257 0.415-5.967 4.392-12.689 8.835-6.723 4.444-14.976 9.912-18.342 12.151-6.665 4.431-7.926 6.224-5.98 8.485 0.697 0.811 6.143 7.264 12.101 14.339s12.785 15.139 15.172 17.919c2.387 2.78 6.070 7.067 8.185 9.532 4.476 5.209 4.837 8.802 0.989 9.865l-2.296 0.635 2.495 0.092c8.495 0.312 2.664-8.724-27.799-43.095-10.738-12.115-10.718-12.408 1.412-19.802 6.75-4.111 21.444-13.845 24.601-16.293 4.98-3.86 5.771-2.742 6.521 9.213 0.342 5.436 1.226 13.397 1.964 17.692 1.51 8.784 1.223 2.606-0.448-9.648-0.484-3.537-0.891-8.837-0.906-11.776-0.039-7.019-2.845-11.603-4.983-8.142zM838.389 432.098c-1.151 1.148-0.629 2.382 0.582 1.377 0.876-0.725 1.833-0.571 3.583 0.577 1.314 0.864 4.809 3.18 7.765 5.149 6.231 4.149 14.933 9.874 16.617 10.94 0.64 0.406 1.163 0.538 1.163 0.3s-4.031-3.087-8.958-6.33c-4.927-3.24-10.149-6.685-11.602-7.649-1.455-0.967-3.729-2.478-5.053-3.361-2.664-1.77-3.195-1.901-4.096-1zM654.938 441.371c-2.694 4.922-6.411 11.020-8.261 13.545-3.966 5.418-4.882 6.891-4.295 6.891 1.521 0 18.709-28.136 17.765-29.077-0.171-0.171-2.515 3.716-5.209 8.64zM837.165 442.511c0 3.789 0.164 5.34 0.36 3.447 0.199-1.896 0.199-4.995 0-6.891-0.197-1.896-0.36-0.345-0.36 3.447zM952.594 465.148c-14.24 16.388-21.285 24.943-14.658 17.793 2.11-2.273 8.553-9.587 14.318-16.255 5.768-6.667 10.897-12.375 11.4-12.684 0.919-0.566 3.097-4.139 2.525-4.139-0.169 0-6.282 6.879-13.586 15.285zM869.017 451.122c0 0.247 2.067 1.788 4.595 3.424 6.294 4.077 6.158 4.471-6.662 19.47-6.191 7.246-12.911 15.169-14.933 17.614s-5.688 6.76-8.145 9.593c-9.112 10.499-7.324 12.516 14.85 16.723 3.963 0.75 6.206 1.699 7.12 3.006 0.735 1.047 1.337 1.465 1.337 0.927 0-2.122-3.537-3.933-10.459-5.358-3.986-0.818-7.913-1.833-8.729-2.253-0.818-0.42-2.999-1.036-4.841-1.37-4.545-0.821-5.119-2.883-1.966-7.062 3.92-5.197 35.981-42.93 37.024-43.572 2.276-1.405 0.864-5.003-2.986-7.611-5.081-3.442-6.201-4.079-6.201-3.535zM835.748 458.592c-1.589 11.655-1.629 12.929-0.223 6.891 0.768-3.286 1.272-7.213 1.12-8.729-0.212-2.122-0.418-1.702-0.899 1.838zM628.275 476.465c-22.098 22.485-46.765 37.074-73.969 43.749-16.134 3.958-19.014 4.323-39.053 4.955l-20.675 0.649 16.081 0.154c42.195 0.398 78.393-12.697 108.885-39.39 7.805-6.831 24.223-24.253 22.395-23.765-0.189 0.050-6.337 6.191-13.666 13.648zM190.204 472.374c0.010 2.022 0.197 2.74 0.418 1.596 0.222-1.141 0.212-2.795-0.017-3.676-0.229-0.878-0.41 0.058-0.4 2.080zM190.982 477.888c-0.028 1.010 0.733 4.733 1.687 8.271s1.752 5.811 1.777 5.053c0.025-0.758-0.735-4.479-1.687-8.271-0.954-3.789-1.752-6.065-1.777-5.053zM832.477 481.103c0 1.77 0.189 2.493 0.42 1.609 0.229-0.884 0.229-2.331 0-3.215-0.232-0.884-0.42-0.161-0.42 1.609zM830.196 491.134c-2.17 7.44-1.956 9.27 0.277 2.374 0.982-3.031 1.684-6.047 1.559-6.7-0.123-0.652-0.952 1.294-1.835 4.325zM922.094 500.631c-6.244 7.201-17.926 20.744-25.963 30.092-26.444 30.762-26.157 30.478-27.423 27.336-0.254-0.632-0.488-0.735-0.521-0.229-0.267 4.189 2.971 3.575 6.804-1.294 1.516-1.926 7.72-9.205 13.782-16.177 6.065-6.974 14.127-16.29 17.919-20.703s11.556-13.445 17.262-20.072c5.703-6.624 10.172-12.048 9.93-12.048-0.239 0-5.546 5.891-11.788 13.095zM195.519 499.599c-0.017 0.823 0.589 2.981 1.347 4.794 2.948 7.052 1.936 8.664-6.712 10.69-2.679 0.629-4.693 1.324-4.474 1.541 1.954 1.954 13.485-3.52 13.485-6.405 0-2.399-3.593-12.878-3.643-10.622zM825.372 509.589c-1.055 3.318 0.362 5.415 4.418 6.541 2.117 0.589 5.622 1.632 7.787 2.319s4.441 1.219 5.053 1.186c1.641-0.096-5.554-2.635-10.539-3.719-5.088-1.108-6.682-2.689-5.887-5.854 0.687-2.737 0.008-3.122-0.833-0.471zM116.343 517.16c4.189 4.922 8.102 9.25 8.692 9.613 1.432 0.886-12.478-15.482-14.628-17.212-0.927-0.745 1.745 2.674 5.937 7.596zM168.838 514.67c-3.789 1.173-6.249 2.163-5.464 2.2 0.788 0.039 4.716-0.936 8.729-2.168 4.016-1.229 6.473-2.218 5.464-2.2-1.010 0.020-4.94 0.997-8.729 2.168zM179.725 517.388c-0.247 0.247-3.721 1.264-7.722 2.266-7.433 1.855-9.663 3.472-9.512 6.881 0.055 1.276 0.36 0.931 0.936-1.062 0.69-2.382 1.521-3.122 4.283-3.812 11.234-2.807 16.909-4.585 14.837-4.648-1.307-0.039-2.576 0.131-2.82 0.378zM847.883 521.047c2.273 0.758 5.010 1.385 6.078 1.392s3.031 0.871 4.366 1.919c1.332 1.047 2.422 1.51 2.422 1.032 0-1.584-2.415-2.918-6.984-3.86-8.487-1.752-10.079-1.883-5.882-0.484zM156.259 525.67c0.005 3.031 0.176 4.162 0.38 2.51s0.199-4.131-0.010-5.514c-0.209-1.38-0.378-0.030-0.373 3.002zM488.388 524.94c1.141 0.222 2.795 0.212 3.676-0.017 0.878-0.229-0.058-0.41-2.080-0.4s-2.74 0.197-1.596 0.418zM867.559 540.371c0.003 9.097 0.141 12.695 0.304 7.994 0.169-4.701 0.169-12.143 0-16.539s-0.304-0.551-0.304 8.545zM861.011 531.181c0.008 2.528 0.186 3.452 0.398 2.057 0.212-1.4 0.206-3.467-0.013-4.595-0.219-1.131-0.393 0.013-0.385 2.538zM130.888 533.938c9.356 10.79 11.783 13.226 5.947 5.972-3.052-3.789-6.888-8.132-8.535-9.648s-0.481 0.139 2.586 3.676zM161.831 545.885c0.003 5.559 0.151 7.714 0.335 4.789s0.181-7.473-0.005-10.108c-0.184-2.635-0.332-0.242-0.33 5.317zM862.013 549.561c0.003 5.559 0.151 7.714 0.335 4.789s0.181-7.473-0.005-10.108c-0.184-2.635-0.332-0.242-0.33 5.317zM198.243 543.611c-1.42 0.468 0.028 0.564 3.789 0.252 5.37-0.448 6.317-0.277 8.039 1.445 1.073 1.073 1.953 1.561 1.953 1.088 0-2.999-8.16-4.645-13.782-2.785zM190.080 545.225c-0.538 1.005-0.557 2.868-0.048 4.824l0.826 3.186-0.383-3.434c-0.304-2.74 0.015-3.716 1.599-4.824 1.616-1.133 1.694-1.39 0.433-1.39-0.852 0-1.944 0.738-2.425 1.639zM813.594 546.159c-0.826 0.909-2.115 3.401-2.87 5.539-3.603 10.212-18.787 38.366-27.521 51.020-13.785 19.978-13.528 19.661-36.835 45.501-10.436 11.567-23.571 23.214-41.694 36.96l-11.619 8.817 0.206 11.398c0.116 6.269 0.655 14.5 1.203 18.289s1.327 11.026 1.732 16.081l0.735 9.19 0.128-9.391c0.070-5.164-0.463-13.641-1.191-18.838-0.722-5.197-1.566-13.004-1.875-17.352l-0.557-7.908 6.881-5.415c3.787-2.978 9.442-7.264 12.571-9.52 12.007-8.664 33.554-29.060 38.725-36.656 0.811-1.191 3.895-4.706 6.856-7.81 5.343-5.602 15.172-17.66 19.578-24.007 1.264-1.821 3.125-4.409 4.134-5.756 7.863-10.456 26.026-44.005 29.359-54.225 1.903-5.841 3.238-6.652 10.95-6.652 9.822 0 11 0.811 10.361 7.138l-0.531 5.267 1.304-5.053c1.244-4.816 1.216-5.128-0.591-6.662-2.792-2.367-17.292-2.334-19.443 0.045zM144.947 550.48c3.323 3.429 4.703 4.261 2.666 1.609-1.949-2.538-4.366-4.824-5.106-4.824-0.373 0 0.725 1.448 2.44 3.215zM212.489 550.48c3.019 14.573 33.791 64.243 50.949 82.24 3.613 3.789 7.933 8.958 9.603 11.486 4.064 6.156 31.872 32.481 37.429 35.432 1.196 0.637 2.716 1.919 3.379 2.853 0.665 0.931 2.525 2.373 4.134 3.198 1.613 0.826 4.378 2.707 6.149 4.182 1.77 1.473 4.192 3.492 5.386 4.487 1.596 1.329 2.006 2.349 1.559 3.855-0.337 1.125-0.997 7.629-1.463 14.452-0.468 6.823-1.314 15.92-1.881 20.215-1.223 9.26-1.229 9.872-0.111 17l0.866 5.514 0.131-6.433c0.070-3.537 0.939-16.929 1.931-29.762 2.111-27.345 3.374-23.534-11.471-34.619-45.123-33.69-81.137-78.73-104.278-130.419-1.584-3.537-2.624-5.192-2.309-3.676zM155.162 555.226c-0.148 2.805-2.027 3.162-4.592 0.878l-2.188-1.951 1.249 2.050c2.372 3.893 7.145 2.908 6.078-1.251-0.38-1.476-0.458-1.435-0.549 0.275zM160.885 564.262c0.005 4.044 0.166 5.582 0.357 3.422 0.197-2.16 0.194-5.467-0.005-7.352-0.197-1.881-0.355-0.113-0.354 3.93zM191.931 561.047c-0.050 1.264 0.531 4.157 1.294 6.433 1.131 3.381 1.276 3.55 0.8 0.919-1.352-7.47-1.999-9.741-2.095-7.352zM862.957 576.206c0 8.087 0.144 11.269 0.312 7.077s0.17-10.809-0.003-14.701c-0.171-3.894-0.312-0.461-0.31 7.624zM829.574 570.76c-0.632 2.82-0.972 5.308-0.755 5.521 0.217 0.219 0.911-1.913 1.541-4.736 0.632-2.82 0.972-5.308 0.755-5.521-0.217-0.219-0.911 1.913-1.541 4.736zM194.781 574.829c0 1.77 0.189 2.493 0.42 1.609 0.229-0.884 0.229-2.331 0-3.215-0.232-0.884-0.42-0.161-0.42 1.609zM827.882 580.343c0 1.77 0.189 2.493 0.42 1.609 0.229-0.884 0.229-2.331 0-3.215-0.232-0.884-0.42-0.161-0.42 1.609zM160.028 595.502c0.003 9.097 0.141 12.695 0.304 7.994 0.169-4.701 0.169-12.143 0-16.539s-0.304-0.551-0.304 8.545zM196.586 585.854c-0.008 2.578 2.319 12.261 2.425 10.108 0.039-0.758-0.491-3.86-1.173-6.891-0.685-3.031-1.246-4.479-1.251-3.215zM824.969 594.641c-0.657 3.303-1.012 6.186-0.793 6.408 0.223 0.222 0.939-2.299 1.596-5.602s1.012-6.186 0.793-6.408c-0.223-0.222-0.939 2.299-1.596 5.602zM863.849 610.206c0.003 5.559 0.151 7.714 0.335 4.789s0.181-7.473-0.005-10.108c-0.184-2.635-0.332-0.242-0.33 5.317zM823.199 603.927c-0.242 3.847-1.329 5.021-7.591 8.175-3.474 1.747-6.314 3.386-6.314 3.638s2.878-0.989 6.395-2.762c6.674-3.361 8.691-5.624 8.032-9.026l-0.393-2.019-0.126 1.992zM200.187 605.314c-0.113 1.644 5.708 5.446 16.894 11.038 9.925 4.96 35.354 18.143 39.972 20.724 2.273 1.272 4.849 3.187 5.723 4.26s1.596 1.455 1.609 0.849c0.035-1.853-5.247-5.161-22.491-14.084-40.969-21.2-40.72-21.064-41.206-22.866-0.337-1.261-0.406-1.249-0.499 0.083zM159.706 617.122c-0.073 1.818 2.498 5.489 3.844 5.489 0.574 0 0.357-0.516-0.476-1.148-0.836-0.632-1.924-2.183-2.415-3.447-0.493-1.264-0.924-1.665-0.957-0.894zM799.927 620.169c-8.145 4.404-10.842 6.501-3.827 2.978 2.601-1.307 4.96-2.374 5.242-2.374 0.284 0 2.039-1.035 3.9-2.296 4.968-3.369 2.734-2.661-5.315 1.692zM861.391 622.087c-0.909 0.69-6.204 3.047-11.763 5.237s-9.759 4.102-9.328 4.242c1.193 0.4 20.648-7.843 22.217-9.411 1.715-1.712 1.093-1.75-1.123-0.068zM165.162 623.004c0 0.217 3.412 1.705 7.581 3.311 18.828 7.244 38.34 14.953 43.071 17.015 2.845 1.241 5.531 2.268 5.972 2.286 0.443 0.015 2.457 0.828 4.479 1.805s4.295 1.772 5.053 1.77c1.534-0.008-2.251-1.775-10.567-4.94-3.031-1.156-8.614-3.364-12.405-4.912-24.374-9.943-43.187-17.060-43.187-16.338zM783.562 628.731c-3.286 1.79-8.804 4.683-12.269 6.436s-6.058 3.422-5.766 3.714c0.295 0.292 1.060 0.103 1.702-0.42 0.644-0.524 5.1-2.928 9.9-5.343s9.97-5.146 11.486-6.068c4.786-2.911 1.176-1.71-5.053 1.682zM832.724 633.737c-7.873 3.001-25.842 11.043-21.134 9.457 8.694-2.925 13.286-4.771 23.891-9.608 4.781-2.18 3.117-2.090-2.757 0.148zM760.97 641.441c-1.843 2.812-1.591 3.497 3.865 10.524 5.172 6.657 7.246 7.417 13.067 4.784 4.673-2.112 11.801-4.927 18.986-7.493 5.406-1.931 10.587-4.576 8.983-4.585-0.617-0.003-2.893 0.8-5.053 1.785-7.843 3.575-25.122 10.37-27.461 10.801-2.050 0.38-3.155-0.446-7.581-5.668-5.76-6.788-6.080-7.853-3.175-10.562 1.108-1.032 1.531-1.875 0.942-1.875s-1.745 1.032-2.573 2.291zM259.807 648.108c-6.962 9.024-7.090 9.057-18.347 4.376-4.24-1.763-7.913-3.002-8.16-2.757s-0.259 0.448-0.030 0.448c0.229 0 3.902 1.448 8.16 3.215 10.089 4.192 12.077 4.162 15.293-0.229 1.387-1.896 3.55-4.577 4.804-5.965 1.256-1.385 2.108-2.684 1.891-2.888s-1.841 1.503-3.608 3.797zM855.577 728.711c-0.277 0.722-0.237 1.75 0.091 2.281 0.997 1.613 3.243 1.073 3.243-0.775 0-2.14-2.634-3.331-3.334-1.506zM790.305 729.713c-0.69 1.797 0.141 2.618 1.949 1.926 1.818-0.697 1.821-2.087 0.005-2.785-0.813-0.312-1.641 0.050-1.953 0.858zM302.287 730.29c0.566 1.705 2.545 1.986 2.545 0.362 0-0.8-0.655-1.455-1.455-1.455s-1.292 0.491-1.090 1.090zM766.104 732.415c0 0.844 0.446 1.382 0.987 1.201 0.541-0.179 0.987-0.721 0.987-1.201s-0.446-1.020-0.987-1.201c-0.541-0.181-0.987 0.357-0.987 1.201zM778.97 732.34c0 0.8 0.655 1.455 1.455 1.455 1.624 0 1.342-1.979-0.362-2.545-0.599-0.199-1.090 0.29-1.090 1.090zM835.569 732.732c-0.32 0.511-0.131 1.211 0.415 1.548 1.412 0.876 2.324-0.322 1.143-1.503-0.66-0.66-1.173-0.675-1.56-0.045zM184.69 736.282c-2.296 0.844-1.352 4.864 1.141 4.864 1.777 0 2.228-0.415 2.009-1.849-0.354-2.319-1.654-3.563-3.152-3.014zM421.678 737.239c-0.458 0.884-1.070 3.676-1.362 6.201-0.534 4.64 0.355 2.774 1.644-3.447 0.627-3.034 2.058-3.162 6.438-0.579 1.818 1.070 6.078 2.296 9.472 2.727s8.857 1.198 12.143 1.712c35.385 5.521 94.67 5.559 124.508 0.081 2.528-0.463 7.488-1.307 11.026-1.875s7.342-1.619 8.452-2.342c7.171-4.658 8.902-1.946 11.74 18.422 0.635 4.549 1.191 7.030 1.236 5.514 0.111-3.58-1.281-14.146-2.785-21.134-1.42-6.601-2.916-7.158-11.315-4.205-2.923 1.027-9.074 2.505-13.672 3.288s-10.426 1.803-12.954 2.268c-16.371 3.029-67.139 4.129-90.969 1.971-18.007-1.632-34.966-4.615-45.458-8.001-8.168-2.635-7.135-2.557-8.145-0.607zM829.272 736.781c-0.629 1.873 0.353 4.366 1.719 4.366 0.697 0 1.274-0.31 1.281-0.69s0.262-1.619 0.566-2.757c0.615-2.284-2.812-3.165-3.57-0.919zM284.617 738.78c0 1.777 0.471 2.364 1.901 2.364 1.445 0 1.83-0.493 1.609-2.058-0.435-3.054-3.51-3.321-3.51-0.304zM307.173 738.141c-0.31 0.811-0.166 1.875 0.322 2.362 1.274 1.274 3.835 0.045 3.22-1.548-0.771-2.004-2.897-2.493-3.543-0.813zM754.721 738.682c-0.816 3.039-0.702 3.381 1.12 3.381 2.243 0 2.802-0.677 2.261-2.744-0.67-2.563-2.76-2.956-3.381-0.637zM785.748 737.888c-0.826 2.148 0.368 4.348 2.165 4.001 2.326-0.448 2.505-3.212 0.284-4.398-1.521-0.816-2.017-0.735-2.452 0.398zM166.081 738.793c0 1.647 1.518 2.659 2.8 1.866 0.66-0.406 0.624-1.007-0.113-1.893-1.387-1.672-2.688-1.659-2.688 0.028zM241.022 738.181c-0.282 0.282-0.511 1.299-0.511 2.261 0 2.208 3.973 1.911 4.398-0.328 0.277-1.453-2.825-2.996-3.888-1.934zM275.427 739.306c0 1.186 0.466 1.835 1.148 1.609 0.632-0.212 1.148-0.934 1.148-1.609s-0.516-1.397-1.148-1.609c-0.682-0.226-1.148 0.423-1.148 1.609zM297.148 738.848c0.292 0.758 0.899 1.377 1.35 1.377s0.821-0.619 0.821-1.377-0.607-1.377-1.35-1.377c-0.823 0-1.143 0.539-0.823 1.377zM703.034 738.848c-0.738 1.919 0.35 4.366 1.735 3.91 1.805-0.591 2.037-5.287 0.262-5.287-0.808 0-1.707 0.619-1.997 1.377zM773.179 738.050c-1.163 1.163-0.672 3.804 0.811 4.373 2.631 1.010 3.265 0.59 2.974-1.961-0.277-2.407-2.422-3.774-3.784-2.412zM807.77 739.772c-0.967 2.085-0.874 2.291 1.050 2.291 1.913 0 3.228-1.526 3.228-3.751 0-1.821-3.276-0.7-4.278 1.46zM855.862 738.066c-0.98 0.98-0.738 3.998 0.322 3.998 1.357 0 2.213-2.719 1.178-3.754-0.478-0.478-1.153-0.589-1.501-0.244zM864.123 738.762c-0.516 1.35 0.081 2.382 1.375 2.382 1.025 0 0.982-2.515-0.058-3.157-0.453-0.279-1.045 0.068-1.317 0.774zM873.909 738.938c-0.571 1.488 1.045 3.084 3.15 3.109 1.574 0.017 1.44-1.403-0.297-3.134-1.805-1.808-2.15-1.803-2.853 0.025zM206.003 739.387c-0.337 0.549-0.156 1.458 0.406 2.022 0.75 0.75 1.022 0.485 1.022-1 0-2.218-0.478-2.56-1.429-1.022zM222.134 739.306c0 0.506 0.852 0.919 1.893 0.919s1.637-0.413 1.324-0.919c-0.312-0.506-1.166-0.919-1.893-0.919s-1.324 0.413-1.324 0.919zM257.473 739.369c-0.849 1.367 0.133 2.111 1.893 1.435 0.813-0.31 1.219-0.983 0.905-1.49-0.745-1.206-2.034-1.181-2.797 0.055zM745.889 740.17c0 1.040 0.413 1.893 0.919 1.893s0.919-0.594 0.919-1.324c0-0.728-0.413-1.581-0.919-1.893s-0.919 0.282-0.919 1.324zM797.347 741.605c0 0.765 0.818 1.377 1.838 1.377 2.19 0 2.437-1.41 0.383-2.198s-2.221-0.725-2.221 0.821zM820.319 741.492c0 0.916 0.768 1.49 1.992 1.49 1.093 0 1.818-0.118 1.609-0.259-0.212-0.144-1.108-0.813-1.992-1.49-1.377-1.055-1.609-1.015-1.609 0.259zM419.033 752.63c0.008 2.528 0.186 3.452 0.398 2.057 0.212-1.4 0.206-3.467-0.013-4.595-0.219-1.131-0.393 0.013-0.385 2.538zM696.584 759.982c0.005 4.044 0.166 5.582 0.357 3.422 0.197-2.16 0.194-5.467-0.005-7.352-0.197-1.881-0.355-0.113-0.354 3.93zM327.192 763.197c0 3.789 0.164 5.34 0.36 3.447 0.199-1.896 0.199-4.995 0-6.891-0.197-1.896-0.36-0.345-0.36 3.447zM417.365 766.385c-0.36 3.85-0.448 7.208-0.197 7.46s0.753-2.691 1.114-6.542c0.36-3.85 0.451-7.208 0.197-7.46s-0.755 2.691-1.115 6.542zM697.385 771.007c-0.039 2.022 0.509 8.016 1.219 13.324l1.292 9.648-0.526-7.81c-0.765-11.317-1.886-19.905-1.981-15.162zM607.415 773.306c0 2.78 0.171 3.918 0.383 2.528 0.209-1.39 0.209-3.663 0-5.053-0.212-1.39-0.383-0.252-0.383 2.528zM326.228 776.521c0.008 2.528 0.186 3.452 0.398 2.057 0.212-1.4 0.206-3.467-0.013-4.595-0.219-1.131-0.393 0.013-0.385 2.538zM416.29 779.736c0 2.78 0.171 3.918 0.383 2.528 0.209-1.39 0.209-3.663 0-5.053-0.212-1.39-0.383-0.252-0.383 2.528zM608.266 787.546c-0.096 4.998 3.16 34.684 3.351 30.558 0.066-1.387-0.499-8.417-1.249-15.62s-1.51-14.545-1.691-16.315c-0.232-2.299-0.35-1.906-0.41 1.377zM324.178 797.084c-0.667 5.982-1.030 11.419-0.808 12.083s0.954-4.044 1.626-10.461 1.036-11.856 0.808-12.085c-0.229-0.226-0.959 4.479-1.626 10.464zM415.389 791.683c0 3.286 0.169 4.628 0.37 2.986 0.204-1.641 0.204-4.331 0-5.972-0.201-1.641-0.37-0.3-0.37 2.986zM700.247 800.412c0.005 3.537 0.17 4.872 0.37 2.966s0.197-4.801-0.008-6.433c-0.204-1.632-0.368-0.070-0.362 3.467zM413.972 809.141c-1.548 18.193-1.581 19.86-0.209 10.567 0.747-5.053 1.246-11.257 1.114-13.782-0.197-3.777-0.357-3.205-0.905 3.215zM701.126 814.194c0.008 2.528 0.186 3.452 0.398 2.057 0.212-1.4 0.206-3.467-0.013-4.595-0.219-1.131-0.393 0.013-0.385 2.538zM322.597 817.411c0 3.789 0.164 5.34 0.36 3.447 0.199-1.896 0.199-4.995 0-6.891-0.197-1.896-0.36-0.345-0.36 3.447zM701.997 824.303c-0.023 2.022 0.484 8.016 1.123 13.324s1.183 7.994 1.206 5.972-0.484-8.016-1.123-13.324c-0.64-5.308-1.183-7.994-1.206-5.972zM612.010 828.437c0 2.78 0.171 3.918 0.383 2.528 0.209-1.39 0.209-3.663 0-5.053-0.212-1.39-0.383-0.252-0.383 2.528zM321.647 832.113c0 2.78 0.171 3.918 0.383 2.528 0.209-1.39 0.209-3.663 0-5.053-0.212-1.39-0.383-0.252-0.383 2.528zM411.695 833.951c0 2.78 0.171 3.918 0.383 2.528 0.209-1.39 0.209-3.663 0-5.053-0.212-1.39-0.383-0.252-0.383 2.528zM612.849 841.761c-0.040 2.528 0.504 9.142 1.209 14.701l1.284 10.108-0.531-8.271c-0.886-13.825-1.873-22.131-1.961-16.539zM319.639 851.499c-0.697 6.874-1.040 13.075-0.76 13.782 0.279 0.71 0.541-0.493 0.582-2.669 0.040-2.178 0.513-6.798 1.052-10.266s0.849-7.891 0.69-9.824c-0.159-1.934-0.861 2.108-1.561 8.978zM410.786 846.356c0.005 3.031 0.176 4.162 0.38 2.51s0.199-4.131-0.010-5.514c-0.209-1.38-0.378-0.030-0.373 3.002zM704.842 854.624c0.005 3.537 0.17 4.872 0.37 2.966s0.197-4.801-0.008-6.433c-0.204-1.632-0.368-0.070-0.362 3.467zM409.845 861.976c0.008 2.528 0.186 3.452 0.398 2.057 0.212-1.4 0.206-3.467-0.013-4.595-0.219-1.131-0.393 0.013-0.385 2.538zM705.735 868.867c0 2.78 0.171 3.918 0.383 2.528 0.209-1.39 0.209-3.663 0-5.053-0.212-1.39-0.383-0.252-0.383 2.528zM408.188 873.779c-0.355 3.789-0.459 7.435-0.229 8.11 0.226 0.672 0.72-2.226 1.088-6.44 0.373-4.215 0.476-7.863 0.232-8.11-0.247-0.244-0.738 2.654-1.090 6.44zM615.686 871.624c0 2.78 0.171 3.918 0.383 2.528 0.209-1.39 0.209-3.663 0-5.053-0.212-1.39-0.383-0.252-0.383 2.528zM317.979 873.001c0.005 3.031 0.176 4.162 0.38 2.51s0.199-4.131-0.010-5.514c-0.209-1.38-0.378-0.030-0.373 3.002zM706.582 878.976c-0.028 1.77 0.484 7.145 1.128 11.944s1.193 7.281 1.219 5.514c0.028-1.77-0.484-7.145-1.128-11.944s-1.193-7.281-1.219-5.514zM616.612 884.948c0.005 3.031 0.176 4.162 0.38 2.51s0.199-4.131-0.010-5.514c-0.209-1.38-0.378-0.030-0.373 3.002zM317.053 888.163c0 2.78 0.171 3.918 0.383 2.528 0.209-1.39 0.209-3.663 0-5.053-0.212-1.39-0.383-0.252-0.383 2.528zM407.102 889.082c0 2.78 0.171 3.918 0.383 2.528 0.209-1.39 0.209-3.663 0-5.053-0.212-1.39-0.383-0.252-0.383 2.528zM617.413 895.805c-0.234 6.254-0.695 6.826-13.163 16.396-16.093 12.347-17.461 13.611-17.141 15.842l0.275 1.931 75.347 0.252c78.632 0.264 79.486 0.239 79.48-2.339-0.005-1.382-7.274-8.001-13.357-12.156-5.864-4.008-16.728-12.416-18.246-14.122-1.032-1.158-1.566-1.395-1.314-0.579 0.234 0.758 6.488 5.929 13.895 11.491 15.759 11.834 17.639 13.566 16.879 15.545-0.881 2.301-151.768 1.76-151.768-0.544 0-1.36 4.006-4.814 22.383-19.304 6.621-5.224 7.662-6.999 7.239-12.39l-0.348-4.444-0.166 4.424zM315.857 896.542c0 3.641-3.706 7.239-19.679 19.102-21.756 16.159-27.624 14.787 63.223 14.787 41.669 0 76.414-0.249 77.212-0.559 3.95-1.516-0.199-5.68-21.978-22.050-3.031-2.281-6.030-4.819-6.662-5.647-0.632-0.826-1.148-1.040-1.148-0.481s4.202 4.26 9.336 8.216c14.605 11.26 20.527 16.401 20.527 17.826 0 1.702-150.836 2.48-152.483 0.788-1.284-1.322 5.539-7.621 17.237-15.912 10.92-7.74 15.333-12.4 15.333-16.182 0-1.516-0.206-2.754-0.459-2.754s-0.459 1.289-0.459 2.865z"></path>
<path fill="#c3d5df" d="M486.309 93.374c-4.549 0.38-12.095 1.352-16.768 2.165-4.676 0.811-9.857 1.476-11.516 1.476s-5.277 0.629-8.039 1.4c-2.765 0.771-8.195 1.997-12.075 2.724s-9.447 2.165-12.375 3.195c-2.925 1.030-6.189 1.871-7.249 1.871s-3.661 0.838-5.781 1.861c-2.12 1.025-5.197 2.117-6.833 2.429-1.639 0.312-4.517 1.334-6.39 2.273-1.875 0.936-3.948 1.705-4.607 1.705s-2.638 0.771-4.401 1.71c-1.763 0.939-4.235 2.029-5.499 2.422-5.343 1.652-34.433 16.466-41.349 21.056-1.77 1.173-6.888 4.567-11.378 7.539-19.81 13.125-30.15 21.658-48.86 40.317-15.588 15.55-30.278 32.522-37.386 43.195-1.347 2.022-4.534 6.73-7.085 10.464-2.553 3.734-4.638 6.977-4.638 7.208s-0.878 1.659-1.956 3.17c-1.075 1.51-2.868 4.469-3.978 6.571-1.114 2.105-4.366 8.261-7.231 13.681-2.868 5.418-5.209 10.318-5.209 10.884s-0.76 2.128-1.69 3.47c-0.929 1.342-2.321 4.3-3.097 6.574s-2.875 7.855-4.673 12.405c-3.631 9.192-5.834 15.617-7.25 21.134-0.519 2.022-1.712 5.743-2.649 8.271s-1.979 6.74-2.311 9.366c-0.771 6.030-1.35 6.629-15.232 15.719-2.86 1.871-11.28 7.538-18.709 12.591s-16.048 10.771-19.153 12.704c-3.102 1.934-6.493 4.313-7.538 5.284s-2.163 1.768-2.487 1.768c-0.328 0-5.053 3.024-10.506 6.717-5.456 3.693-11.572 7.823-13.594 9.17s-6.156 4.119-9.19 6.153c-3.031 2.037-9.029 6.020-13.324 8.852-4.295 2.835-8.639 5.879-9.648 6.768s-2.251 1.77-2.757 1.961c-8.495 3.203-17.677 11.927-16.489 15.667 0.538 1.691 15.955 20.413 18.075 21.947 0.39 0.282 4.741 5.325 9.668 11.209 12.652 15.099 41.546 48.655 43.315 50.307 0.816 0.76 5.479 6.136 10.366 11.944 20.61 24.51 19.568 24.765 20.454-4.943 0.513-17.269 0.939-18.954 4.774-18.954 2.611 0 2.656 0.264 0.577 3.437-3.107 4.733-5.297 97.11-2.362 99.544 2.47 2.047 21.32 9.973 34.994 14.711 2.661 0.922 5.751 2.316 6.866 3.097 1.115 0.783 2.785 1.423 3.709 1.423s3.002 0.693 4.62 1.534c1.616 0.846 5.627 2.53 8.913 3.749s7.626 2.825 9.648 3.573c2.022 0.747 5.358 2.163 7.41 3.142 2.057 0.982 4.331 1.788 5.053 1.793 0.725 0.003 2.558 0.826 4.076 1.83 5.647 3.739 7.642 2.795 16.149-7.636 7.171-8.795 7.72-8.266-27.177-26.368-4.044-2.097-11.692-6.096-17-8.883s-10.99-5.735-12.626-6.549c-2.304-1.141-3.094-2.216-3.477-4.733-0.272-1.793-1.158-6.566-1.966-10.607s-1.858-10.245-2.337-13.782c-0.476-3.537-1.684-9.741-2.684-13.782s-1.901-9.832-1.999-12.863l-0.179-5.514 8.253-0.27c9.424-0.304 10.582 0.39 10.582 6.362 0 1.896 0.388 3.684 0.864 3.978 1.392 0.858 7.407 13.943 7.407 16.111 0 3.794-3.047 1.692-4.086-2.82-2.498-10.837-6.788-11.28-6.725-0.695 0.030 4.523-0.375 6.765-1.423 7.923-4.119 4.549-1.548 27.755 3.074 27.755 0.499 0 2.616 1.241 4.708 2.757 2.095 1.516 4.386 2.757 5.094 2.757 1.425 0 6.906 2.636 7.626 3.671 0.252 0.36 1.979 1.151 3.832 1.755 1.853 0.607 3.868 1.699 4.476 2.429 0.609 0.733 1.516 1.332 2.022 1.332 0.504 0 3.243 1.392 6.091 3.097 2.845 1.702 6.277 3.354 7.621 3.673 2.875 0.677 16.806 13.488 18.745 17.237 1.312 2.535 1.244 2.684-3.497 7.48-2.659 2.689-6.227 6.838-7.929 9.217-3.679 5.141-5.955 5.504-13.274 2.117-2.621-1.216-5.801-2.504-7.065-2.868s-2.918-1.183-3.676-1.825c-0.758-0.642-2.747-1.458-4.421-1.815-1.672-0.355-8.495-2.825-15.162-5.486-15.953-6.372-21.758-8.23-22.713-7.266-0.747 0.753-1.387 3.404-5.645 23.302-1.443 6.75-2.533 9.562-4.812 12.405-1.616 2.022-4.122 5.743-5.564 8.271s-3.623 5.834-4.841 7.352c-1.219 1.516-3.824 5.237-5.786 8.271-1.964 3.031-5.101 7.787-6.977 10.567-18.903 28.038-20.746 31.054-20.137 32.973l0.624 1.966 185.941-0.148 0.919 25.396 0.707-12.526c0.446-7.901 0.368-13.42-0.212-14.943-0.587-1.541-0.615-3.993-0.075-6.77 1.534-7.946 2.795-19.981 2.819-26.915 0.013-3.763 0.433-8.623 0.934-10.801 1.219-5.282-2.11-9.346-12.154-14.84-1.861-1.020-3.928-2.618-4.595-3.555-0.665-0.936-2.188-2.223-3.384-2.86-5.557-2.95-33.365-29.276-37.429-35.432-1.667-2.528-5.99-7.696-9.603-11.486-17.622-18.483-46.765-65.776-51.375-83.37-1.324-5.068-2.946-5.801-11.97-5.413-11.547 0.496-11.080-3.137-4.308 33.652 1.256 6.823 2.948 16.093 3.757 20.605 0.811 4.509 1.574 8.291 1.694 8.402 0.983 0.884 14.553 8.072 43.368 22.969 22.622 11.695 22.045 10.764 13.566 21.884-4.809 6.307-5.985 6.438-16.773 1.868-4.278-1.813-9.222-3.716-10.993-4.233s-3.631-1.254-4.134-1.647c-0.506-0.39-1.953-1.010-3.215-1.377-1.264-0.368-4.572-1.639-7.352-2.822-4.65-1.984-10.859-4.429-41.81-16.476-14.887-5.793-14.243-4.738-14.243-23.206 0-21.154 2.659-78.282 3.737-80.296 0.488-0.914 2.641-2.095 4.781-2.624 2.137-0.531 6.163-1.559 8.943-2.284 2.78-0.728 7.949-2.032 11.486-2.896 10.451-2.557 11.207-3.563 8.334-11.133-0.721-1.903-2.027-6.979-2.898-11.274s-2.11-10.083-2.744-12.863l-1.158-5.053-0.075 3.789c-0.043 2.085 0.524 5.494 1.261 7.584 0.735 2.085 1.78 6.375 2.321 9.532 0.539 3.157 1.632 7.512 2.425 9.676 1.654 4.522 0.922 6.138-3.13 6.906-1.375 0.259-3.442 0.773-4.595 1.136-1.989 0.624-2.070 0.478-1.566-2.9 0.385-2.583 0.078-4.222-1.118-5.972-1.71-2.498-24.79-29.946-33.76-40.148-2.807-3.192-5.103-6.151-5.103-6.574 0-0.753 12.151-10.134 13.125-10.134 0.272 0 5.73-3.52 12.13-7.823 13.689-9.197 13.316-9.255 13.402 2.135 0.038 4.988 1.007 14.16 2.206 20.85 2.404 13.432 3.074 11.39 0.902-2.757-0.775-5.053-1.664-13.427-1.971-18.609-0.682-11.469-1.51-12.594-6.464-8.754-3.157 2.447-17.851 12.18-24.601 16.293-12.13 7.395-12.153 7.687-1.412 19.802 32.894 37.112 35.5 41.558 25.623 43.706-9.326 2.029-17.786 4.287-20.074 5.358-2.734 1.279-3.376 6.038-3.56 26.401-0.144 15.882-1.835 18.131-7.656 10.174-2.749-3.759-8.525-10.524-37.024-43.378-10.612-12.234-23.43-27.096-28.486-33.026s-13.042-15.19-17.75-20.572c-11.136-12.732-11.136-12.709 1.211-21.069 7.961-5.388 33.013-22.363 36.933-25.024 0.745-0.506 10.985-7.329 22.755-15.162 70.653-47.019 67.279-44.524 68.576-50.7 0.849-4.049 3.573-13.52 6.025-20.97 0.748-2.273 1.896-6.010 2.548-8.301 3.16-11.121 18-44.292 25.676-57.397 27.844-47.54 69.764-91.095 111.63-115.988 3.205-1.906 7.752-4.612 10.108-6.015 6.359-3.787 20.683-10.974 29.546-14.827 4.295-1.868 8.509-3.774 9.361-4.237 2.689-1.463 15.406-5.786 36.583-12.433 31.628-9.927 88.912-13.938 127.264-8.908 36.054 4.731 68.954 14.495 100.156 29.727 16.635 8.12 20.27 10.167 35.377 19.915 32.132 20.731 70.029 56.572 87.293 82.552 0.758 1.141 4.111 6.128 7.455 11.088 9.585 14.225 13.36 20.817 21.209 37.038 4.033 8.339 7.752 15.945 8.263 16.901 0.889 1.669 2.981 7.332 5.975 16.177 0.771 2.273 2.14 6.201 3.044 8.729 2.635 7.359 5.668 17.901 7.010 24.349 2.203 10.607 1.768 10.202 34.199 31.965 16.35 10.974 30.372 20.363 31.16 20.87 2.211 1.418 24.294 16.162 48.791 32.57 27.265 18.264 27.041 17.936 18.581 27.109-4.683 5.078-14.298 16.164-32.693 37.693-6.569 7.689-16.907 19.709-22.972 26.711s-13.681 15.854-16.927 19.671c-3.245 3.817-7.589 8.82-9.648 11.116s-4.887 5.501-6.28 7.12c-5.050 5.869-6.196 2.351-6.196-19.042 0-19.371-0.058-19.518-8.457-21.111-22.171-4.208-23.961-6.227-14.85-16.723 2.457-2.832 6.123-7.148 8.145-9.593s8.742-10.37 14.933-17.614c6.191-7.244 11.257-13.901 11.257-14.792 0-1.058-3.915-4.197-11.257-9.031-6.191-4.077-13.674-9.024-16.632-10.995-2.956-1.969-6.45-4.287-7.765-5.152-3.868-2.54-4.459-1.022-5.172 13.289-0.357 7.198-1.062 14.95-1.563 17.224s-1.664 8.89-2.583 14.701c-0.916 5.811-3.002 15.678-4.633 21.922-3.417 13.077-3.449 12.964 4.577 15.084 7.093 1.871 20.15 5.232 23.43 6.035 5.063 1.236 5.729 7.979 7.382 74.78l0.564 22.715-2.135 2.115c-1.176 1.163-6.685 3.893-12.244 6.065-13.641 5.335-17.264 6.81-24.883 10.154-3.578 1.568-6.853 2.853-7.279 2.853-1.083 0-12.382 4.406-15.159 5.913-1.264 0.685-3.744 1.672-5.514 2.195-3.535 1.045-12.765 4.685-19.444 7.671-5.826 2.606-7.906 1.841-13.067-4.807-6.957-8.958-6.737-9.955 3.317-15.147 3.676-1.899 11.025-5.713 16.33-8.48s15.643-8.13 22.972-11.921c7.329-3.789 13.672-7.211 14.097-7.598 0.826-0.758 4.721-18.636 6.191-28.425 0.488-3.261 1.463-8.22 2.163-11.026 2.321-9.293 3.608-21.217 2.422-22.406-1.43-1.43-14.956-1.989-17.335-0.718-1.070 0.574-2.548 3.069-3.448 5.834-3.334 10.219-21.496 43.769-29.359 54.225-1.010 1.347-2.871 3.935-4.134 5.756-4.406 6.35-14.235 18.405-19.578 24.007-2.958 3.107-6.044 6.621-6.856 7.81-5.172 7.596-26.718 27.992-38.725 36.656-3.13 2.256-8.79 6.543-12.581 9.53l-6.896 5.426 0.546 7.437c0.302 4.091 1.206 12.372 2.009 18.4 0.957 7.196 1.302 14.54 1.002 21.363-0.249 5.723-0.098 10.401 0.34 10.401s0.798-1.46 0.798-3.245c0-3.343 2.289-5.433 3.608-3.291 0.504 0.811 14.588 1.036 56.65 0.904 64.491-0.201 55.924-0.206 93.859 0.058 31.238 0.217 31.497 0.191 31.497-2.981 0-1.903-11.091-19.181-32.62-50.821-2.022-2.971-3.882-5.813-4.134-6.32s-2.452-3.87-4.89-7.478c-4.509-6.674-8.142-18.314-9.709-31.107-0.406-3.301-1.002-4.668-2.125-4.882-1.742-0.332-25.893 8.378-35.193 12.692-5.929 2.749-23.46 9.18-25.029 9.18-1.022 0-2.888-1.345-4.144-2.986-1.254-1.641-3.779-4.64-5.604-6.662s-3.543-4.333-3.815-5.136c-0.27-0.803-1.498-1.999-2.727-2.659-2.075-1.11-2.145-1.375-0.974-3.593 1.928-3.658 18.583-19.669 19.286-18.536 0.869 1.405 3.95 1.206 4.814-0.315 0.406-0.713 6.523-4.283 13.598-7.933s13.425-7.085 14.112-7.629 3.133-1.641 5.441-2.44c6.924-2.392 7.827-4.424 7.931-17.773 0.070-9.678-0.161-11.708-1.523-13.213-1.161-1.284-1.609-3.334-1.609-7.372 0-3.658-0.398-5.729-1.148-5.98-1.256-0.423-5.562 6.531-6.542 10.57-0.337 1.39-1.193 2.528-1.899 2.528s-1.531 0.516-1.83 1.148-0.328-0.3-0.063-2.067c0.264-1.77 1.299-4.338 2.304-5.705s1.825-2.822 1.825-3.23c0-0.406 0.816-2.261 1.81-4.119 0.997-1.858 2.294-5.365 2.888-7.798 1.682-6.914 2.714-7.634 10.952-7.634 9.812 0 10.753 3.117 5.967 19.757-0.725 2.528-1.691 7.488-2.142 11.026-0.695 5.453-4.351 25.296-5.267 28.614-0.159 0.574-6.624 4.25-14.369 8.165-7.747 3.915-16.149 8.22-18.677 9.567s-5.524 2.943-6.662 3.55c-5.023 2.679-6.465 3.417-10.791 5.521-13.963 6.795-15.051 9.434-7.696 18.63 6.936 8.668 8.709 9.104 18.405 4.517 3.205-1.516 6.345-2.757 6.977-2.757 0.635 0 2.696-0.826 4.582-1.838 1.883-1.010 3.9-1.838 4.479-1.838 0.577 0 3.27-0.972 5.987-2.158 2.714-1.186 8.037-3.314 11.826-4.723s8.958-3.5 11.486-4.638c2.528-1.141 6.043-2.581 7.81-3.203 10.539-3.706 13.405-4.849 15.081-6.022 1.027-0.721 2.503-1.309 3.278-1.309 1.719 0 10.305-4.459 11.307-5.871 0.8-1.131 0.139-39.536-1.267-73.59-1.035-25.059-1.44-26.56-7.729-28.634l-3.671-1.214 3.676 0.433c10.859 1.276 10.567 0.705 10.567 20.703 0 15.328 0.833 21.816 2.845 22.151 0.458 0.075 1.246 0.179 1.757 0.229s2.684-2.042 4.824-4.653c6.7-8.158 23.642-27.866 33.733-39.24 5.323-5.995 10.917-12.483 12.433-14.409 1.516-1.928 6.989-8.394 12.163-14.366 5.174-5.969 12.946-14.991 17.274-20.046 4.325-5.053 9.812-11.405 12.186-14.115 8.127-9.27 7.929-9.741-9.006-20.968-11.509-7.631-14.255-9.477-28.846-19.362-8.389-5.685-15.51-10.338-15.822-10.338s-1.863-1.070-3.448-2.379c-2.445-2.017-22.562-15.595-34.591-23.35-1.961-1.264-9.613-6.433-17.007-11.486s-15.018-10.124-16.942-11.264c-3.769-2.238-6.732-7.707-7.83-14.462-0.71-4.366-4.527-17.319-7.12-24.168-1.012-2.679-2.168-6.194-2.568-7.81-3.019-12.244-22.746-51.554-35.367-70.474-23.979-35.946-57.088-68.949-92.794-92.502-5.053-3.336-10.295-6.826-11.65-7.755-3.263-2.243-7.584-4.653-14.673-8.172-7.337-3.646-8.175-4.074-10.431-5.315-4.582-2.528-12.46-6.043-19.248-8.593-4.071-1.528-8.64-3.359-10.157-4.071-4.261-1.999-16.126-5.934-20.215-6.702-2.022-0.38-6.362-1.576-9.648-2.654s-8.039-2.354-10.567-2.838c-2.528-0.484-7.903-1.521-11.944-2.309-28.015-5.451-60.653-7.38-87.293-5.152zM496.876 200.51c-59.774 5.705-109.829 42.996-135.523 100.954-11.569 26.097-14.739 64.666-7.932 96.481 1.796 8.397 5.539 20.719 7.815 25.729 5.657 12.458 7.752 16.61 11.828 23.43 29.83 49.927 79.795 77.733 139.431 77.59 24.085-0.058 23.536 0 41.81-4.482 40.775-10.003 78.675-39.723 100.587-78.879 3.049-5.448 5.557-10.205 5.572-10.567 0.013-0.362 1.045-2.729 2.289-5.257s2.264-5.335 2.268-6.239c0.005-0.905 0.8-3.198 1.77-5.099 0.967-1.899 2.050-5.086 2.399-7.085 0.353-1.997 1.403-6.456 2.334-9.907 4.479-16.569 4.172-51.445-0.627-71.368-17.642-73.249-79.78-123.589-154.726-125.346-8.339-0.197-17.023-0.176-19.296 0.040zM535.927 203.204c3.537 0.773 9.532 1.999 13.324 2.724 6.227 1.193 12.687 3.25 26.187 8.349 38.119 14.389 77.654 56.118 89.139 94.081 0.687 2.273 1.878 5.788 2.649 7.81 0.768 2.022 1.42 4.708 1.45 5.972 0.028 1.264 0.949 4.985 2.050 8.271 3.107 9.293 3.14 55.222 0.045 64.648-1.138 3.464-2.072 7.598-2.077 9.19s-1.037 5.101-2.296 7.805c-1.259 2.704-2.289 5.592-2.289 6.418 0 1.412-1.319 4.434-7.289 16.69-3.072 6.307-7.035 13.13-10.403 17.919-1.425 2.022-3.55 5.124-4.721 6.891-7.88 11.886-34.856 35.901-46.961 41.81-1.516 0.74-5.443 2.825-8.729 4.63-6.085 3.348-7.752 4.053-20.675 8.749-22.995 8.356-59.958 11.307-80.666 6.437-4.444-1.045-8.87-1.901-9.839-1.901-2.189 0-19.070-5.517-25.273-8.258-9.829-4.346-23.443-11.322-24.442-12.528-0.579-0.695-1.46-1.267-1.961-1.267s-2.208-1.055-3.792-2.344c-1.586-1.289-5.363-4.26-8.397-6.599-13.336-10.297-39.053-40.367-39.053-45.662 0-0.388-0.773-1.8-1.717-3.142s-2.032-3.474-2.417-4.736-1.473-3.396-2.417-4.736c-0.947-1.342-1.717-2.95-1.717-3.575s-0.796-2.835-1.765-4.912c-3.658-7.83-7.118-21.267-10.194-39.612-1.298-7.737-1.030-35.186 0.406-41.349 0.705-3.031 1.765-8.745 2.354-12.695s1.858-8.913 2.819-11.026c0.959-2.115 1.752-4.726 1.765-5.804 0.030-2.924 13.895-32.877 15.56-33.609 0.335-0.146 1.719-2.183 3.077-4.52 13.694-23.616 47.316-50.262 76.947-60.98 3.789-1.372 8.142-3.021 9.676-3.666 2.666-1.125 5.179-1.691 20.648-4.654 3.789-0.728 7.72-1.483 8.729-1.682 5.461-1.070 36.296-0.443 42.268 0.861zM502.39 312.915c-3.286 0.39-7.626 1.37-9.648 2.17-2.022 0.803-4.612 1.481-5.758 1.501-1.81 0.038-8.87 3.069-13.077 5.622-0.758 0.459-3.298 1.858-5.647 3.107-8.837 4.706-20.678 17.499-29.808 32.202-2.273 3.663-5.965 12.292-6.483 15.162-0.226 1.264 0.642-0.184 1.928-3.215 9.829-23.118 26.401-41.024 44.602-48.2 1.77-0.697 3.633-1.581 4.147-1.964 0.954-0.715 9.275-2.936 17.448-4.658 6.211-1.309 25.459-0.413 31.243 1.455 2.528 0.816 6.662 2.135 9.19 2.931 16.038 5.050 45.969 31.793 46.435 41.488 0.063 1.256 4.456 9.88 4.509 8.848 0.066-1.223-4.736-11.463-7.49-15.978-5.101-8.361-12.362-16.192-23.372-25.203-4.117-3.369-20.16-11.551-22.647-11.551-1.151 0-4.557-0.866-7.568-1.926-6.158-2.163-18.332-2.943-27.997-1.788zM483.552 373.067c-1.516 0.677-4.205 2.819-5.972 4.756l-3.215 3.522 4.233-3.769c15.673-13.961 38.051 1.551 31.082 21.542-5.103 14.641-31.172 12.843-35.812-2.467-0.612-2.022-0.73-2.087-0.8-0.446-0.488 11.967 22.166 18.863 32.197 9.799 16.992-15.351-0.774-42.308-21.708-32.937zM592.475 375.143c-0.020 0.599 0.413 2.253 0.964 3.676s1.354 5.275 1.788 8.561l0.786 5.972-0.31-6.433c-0.249-5.224-3.102-15.62-3.228-11.776zM473.554 382.609c-0.252 0.408-0.642 2.787-0.861 5.284-0.395 4.471-0.31 4.285 1.183-2.581 0.728-3.343 0.622-4.233-0.322-2.704zM428.534 388.412c-1.017 5.086-0.534 17.67 0.861 22.398l1.354 4.595-0.705-4.595c-0.39-2.528-0.667-9.245-0.615-14.933 0.098-11.073-0.005-11.934-0.899-7.465zM595.383 403.574c-0.103 4.104-0.808 9.222-1.566 11.37-1.999 5.665-1.596 6.758 0.544 1.481 1.443-3.56 1.757-6.126 1.516-12.405l-0.302-7.913-0.191 7.465zM430.818 417.991c-0.101 2.566 3.454 12.080 4.227 11.31 0.222-0.222-0.275-1.712-1.105-3.314-0.826-1.604-1.848-4.638-2.264-6.75-0.594-3.002-0.78-3.273-0.858-1.246zM591.644 423.059c-0.223 3.812-9.321 20.653-14.724 27.262-25.028 30.593-64.872 39.866-99.994 23.271-15.326-7.241-30.135-21.542-38.27-36.96-1.841-3.487-3.343-5.76-3.343-5.053 0.005 9.346 25.487 36.246 40.43 42.676 1.77 0.76 3.978 1.815 4.912 2.342 21.781 12.311 59.859 6.637 83.879-12.494 12.364-9.849 28.911-34.45 27.64-41.092l-0.403-2.090-0.126 2.14zM844.209 436.539c1.189 1.264 2.493 2.296 2.9 2.296 0.695 0 12.75 7.931 17.715 11.655 1.223 0.919 4.313 2.911 6.858 4.426 6.131 3.651 6.36 4.648 2.11 9.119-3.167 3.328-18.783 21.751-23.612 27.859-1.010 1.276-3.51 4.233-5.557 6.564-8.15 9.295-8.804 10.33-8.218 13.007 0.806 3.681-6.805 4.849-8.185 1.256-0.594-1.548 1.664-14.573 3.17-18.291 0.616-1.516 1.654-6.272 2.309-10.567s1.803-10.706 2.553-14.243c0.748-3.537 1.649-12.634 2.002-20.215 0.783-16.884 1.244-17.878 5.955-12.863zM845.642 516.45c2.515 1.903-1.788 1.927-5.108 0.030l-2.296-1.314 2.812-0.033c1.543-0.017 3.61 0.574 4.595 1.317zM222.849 578.575c0.249 2.155 0.212 2.168-1.148 0.443-1.702-2.163-1.821-3.56-0.257-3.047 0.632 0.209 1.264 1.38 1.405 2.603zM227.435 586.602c0.551 1.654-1.347 1.307-1.986-0.362-0.345-0.896-0.141-1.317 0.534-1.090 0.599 0.199 1.254 0.853 1.455 1.455zM797.432 589.811c-0.728 0.728-1.007 0.488-1.007-0.861 0-2.429 1.284-3.719 1.694-1.699 0.171 0.856-0.139 2.009-0.69 2.56zM793.671 595.502c0 0.758-0.413 1.377-0.919 1.377s-0.919-0.619-0.919-1.377c0-0.758 0.413-1.377 0.919-1.377s0.919 0.619 0.919 1.377zM858.911 730.217c0 1.849-2.246 2.389-3.243 0.775-0.328-0.531-0.368-1.559-0.091-2.281 0.7-1.825 3.334-0.637 3.334 1.506zM793.671 730.245c0 1.042-2.634 2.14-3.369 1.405-0.292-0.295-0.29-1.166 0.005-1.936 0.559-1.453 3.366-1.010 3.366 0.531zM304.832 730.652c0 1.624-1.979 1.342-2.545-0.362-0.199-0.599 0.29-1.090 1.090-1.090s1.455 0.655 1.455 1.455zM768.081 732.415c0 0.481-0.446 1.022-0.987 1.201-0.541 0.181-0.987-0.357-0.987-1.201s0.446-1.382 0.987-1.201c0.541 0.181 0.987 0.721 0.987 1.201zM781.514 732.702c0.199 0.599-0.29 1.090-1.090 1.090s-1.455-0.655-1.455-1.455c0-1.624 1.979-1.342 2.545 0.362zM837.548 734.328c-0.876 0.878-2.631-0.541-1.979-1.596 0.385-0.629 0.902-0.615 1.56 0.045 0.541 0.541 0.73 1.241 0.418 1.551zM187.841 739.296c0.219 1.432-0.232 1.849-2.009 1.849-1.81 0-2.291-0.466-2.291-2.221 0-3.943 3.691-3.626 4.3 0.373zM832.842 737.699c-0.304 1.138-0.562 2.377-0.566 2.757-0.025 1.415-2.571 0.627-2.971-0.919-0.642-2.478 0.17-3.905 2.223-3.905 1.488 0 1.755 0.42 1.314 2.067zM288.127 739.087c0.223 1.563-0.164 2.058-1.609 2.058-1.43 0-1.901-0.587-1.901-2.364 0-3.016 3.074-2.747 3.51 0.304zM310.716 738.954c0.615 1.594-1.946 2.822-3.22 1.548-1.226-1.226-0.038-3.943 1.476-3.364 0.677 0.259 1.463 1.078 1.745 1.815zM758.103 739.319c0.541 2.067-0.015 2.744-2.261 2.744-1.823 0-1.936-0.342-1.12-3.381 0.622-2.321 2.712-1.927 3.381 0.637zM789.811 740.046c-0.164 0.846-1.017 1.674-1.899 1.846-1.797 0.348-2.991-1.853-2.165-4.001 0.75-1.956 4.474 0.020 4.064 2.158zM168.77 738.765c0.738 0.886 0.773 1.485 0.113 1.893-1.281 0.793-2.8-0.219-2.8-1.866 0-1.687 1.299-1.699 2.688-0.028zM244.909 740.114c-0.426 2.238-4.398 2.533-4.398 0.328 0-2.334 0.665-2.868 2.855-2.294 1.062 0.277 1.71 1.103 1.543 1.969zM277.726 739.306c0 0.672-0.516 1.397-1.148 1.609-0.682 0.226-1.148-0.423-1.148-1.609s0.466-1.835 1.148-1.609c0.632 0.212 1.148 0.934 1.148 1.609zM299.318 738.848c0 0.758-0.37 1.377-0.821 1.377-0.453 0-1.060-0.619-1.35-1.377-0.322-0.838 0-1.377 0.823-1.377 0.743 0 1.35 0.619 1.35 1.377zM421.953 739.996c-0.292 1.39-0.904 4.182-1.362 6.201-0.458 2.022-1.269 8.43-1.797 14.243-0.534 5.811-1.337 14.082-1.79 18.377s-1.098 13.185-1.432 19.757c-0.337 6.569-1.193 16.7-1.908 22.511-0.713 5.811-1.934 19.87-2.714 31.243s-1.589 21.295-1.796 22.053c-1.145 4.189-2.364 25.767-1.541 27.272 0.504 0.919 3.444 3.532 6.536 5.808 20.708 15.232 26.399 20.908 22.471 22.413-0.8 0.307-35.543 0.559-77.212 0.559-90.85 0-84.954 1.382-63.223-14.822 21.459-16 19.797-12.951 21.462-39.393 0.559-8.845 1.612-21.456 2.337-28.025s1.757-19.181 2.291-28.025c0.536-8.845 1.576-20.628 2.316-26.187 0.743-5.559 1.289-12.589 1.219-15.62-0.073-3.195-0.27-4.162-0.459-2.296-0.184 1.77-0.944 7.571-1.692 12.893s-1.768 17.728-2.264 27.567c-0.493 9.839-1.503 22.229-2.238 27.537-0.738 5.308-1.783 17.345-2.321 26.756-1.76 30.583-0.869 28.634-19.084 41.681-16.204 11.607-20.24 16.418-15.346 18.296 3.603 1.382 155.413 0.599 156.581-0.808 1.173-1.415 0.579-5.985-0.778-5.985-0.415 0-2.206-1.239-3.975-2.754-1.772-1.513-4.502-3.684-6.065-4.824-1.561-1.138-6.821-5.101-11.682-8.81l-8.842-6.74 0.609-7.503c0.335-4.127 0.982-9.157 1.435-11.179s1.256-11.738 1.785-21.593 1.561-22.219 2.294-27.474c0.733-5.257 1.76-17.249 2.279-26.648 0.521-9.4 1.382-20.399 1.919-24.442 0.534-4.044 1.47-13.447 2.085-20.897 1.176-14.33 1.927-16.484 4.995-14.333 1.38 0.967 3.676 1.136 9.494 0.693 9.233-0.702 29.79-0.226 43.051 0.994 24.566 2.266 47.983 2.085 73.118-0.557 2.49-0.262 15.011-0.551 27.819-0.644 26.164-0.191 24.286-0.725 25.265 7.181 0.312 2.528 0.977 7.281 1.478 10.567 0.499 3.286 1.345 14.037 1.876 23.891s1.563 22.053 2.291 27.106c0.725 5.053 1.768 17.629 2.311 27.944 0.546 10.318 1.148 19.009 1.337 19.313 0.491 0.793 2.168 17.347 2.792 27.514 0.647 10.6 0.458 10.942-10.318 18.574-4.431 3.137-8.263 5.96-8.515 6.272s-3.041 2.629-6.201 5.149c-5.939 4.741-7.644 8.709-4.29 9.996 3.769 1.448 155.509 0.59 156.984-0.886 2.578-2.576-0.335-6.070-11.083-13.311-2.963-1.994-7.903-5.592-10.974-7.989s-6.75-5.199-8.172-6.227c-2.372-1.707-2.646-2.523-3.256-9.648-0.368-4.28-1.324-13.986-2.135-21.567-0.806-7.581-1.903-20.399-2.442-28.486s-1.367-17.39-1.843-20.675c-0.476-3.286-1.299-14.006-1.835-23.823s-1.428-20.774-1.98-24.349c-0.557-3.575-1.342-9.6-1.75-13.389-0.629-5.854-0.682-5.3-0.342 3.676 0.222 5.811 0.791 13.047 1.269 16.081s1.324 12.75 1.878 21.593c0.557 8.845 1.601 21.456 2.321 28.025s1.745 18.767 2.273 27.106c0.899 14.132 3.263 38.363 4.182 42.867 0.34 1.657 9.429 9.19 19.233 15.94 6.174 4.25 13.334 10.779 13.339 12.156 0.005 2.578-0.849 2.603-79.48 2.339l-75.347-0.252-0.275-1.931c-0.32-2.231 1.047-3.495 17.141-15.842 15.139-11.619 14.296-7.493 10.257-50.224-0.957-10.108-1.989-22.72-2.296-28.025s-1.337-17.297-2.289-26.648c-0.952-9.348-2.002-21.96-2.334-28.025-0.927-16.947-4.311-39.546-6.206-41.442-0.373-0.373-1.606-0.214-2.742 0.353-4.006 1.992-10.733 3.817-17.388 4.718-3.701 0.504-9.419 1.324-12.704 1.83-30.664 4.708-85.359 4.303-118.533-0.878-3.286-0.513-8.749-1.284-12.143-1.715s-7.654-1.657-9.472-2.727c-4.381-2.583-5.808-2.455-6.445 0.579zM706.209 739.926c-0.332 2.815-2.316 3.92-3.147 1.755-0.783-2.044 0.229-4.209 1.969-4.209 1.052 0 1.385 0.697 1.178 2.455zM776.963 740.462c0.295 2.553-0.342 2.974-2.974 1.961-1.483-0.569-1.974-3.212-0.811-4.373 1.362-1.362 3.505 0.005 3.784 2.412zM812.048 738.312c0 2.226-1.314 3.751-3.228 3.751-1.924 0-2.017-0.204-1.050-2.291 1.002-2.163 4.278-3.281 4.278-1.46zM857.685 740.623c-0.304 0.793-0.982 1.44-1.501 1.44-1.060 0-1.299-3.019-0.322-3.998 1.010-1.010 2.425 0.982 1.822 2.557zM866.261 739.822c0 1.352-1.095 1.76-2.082 0.774-0.826-0.828 0.312-3.192 1.259-2.609 0.453 0.279 0.823 1.105 0.823 1.833zM876.762 738.913c1.737 1.735 1.871 3.155 0.297 3.134-2.105-0.025-3.721-1.621-3.15-3.109 0.702-1.828 1.047-1.833 2.853-0.025zM207.43 740.409c0 1.483-0.272 1.75-1.022 1-0.564-0.564-0.745-1.473-0.406-2.022 0.952-1.538 1.429-1.196 1.429 1.022zM225.349 739.306c0.312 0.506-0.282 0.919-1.324 0.919s-1.893-0.413-1.893-0.919c0-0.506 0.594-0.919 1.324-0.919s1.581 0.413 1.893 0.919zM260.27 739.314c0.315 0.509-0.092 1.181-0.905 1.49-1.76 0.675-2.74-0.068-1.893-1.435 0.763-1.236 2.055-1.261 2.797-0.055zM747.727 740.74c0 0.728-0.413 1.324-0.919 1.324s-0.919-0.852-0.919-1.893c0-1.040 0.413-1.637 0.919-1.324s0.919 1.166 0.919 1.893zM799.568 740.784c2.055 0.788 1.808 2.198-0.383 2.198-1.020 0-1.838-0.615-1.838-1.377 0-1.546 0.169-1.609 2.221-0.821zM823.917 742.723c0.209 0.144-0.513 0.259-1.609 0.259-1.223 0-1.992-0.574-1.992-1.49 0-1.274 0.232-1.314 1.609-0.259 0.884 0.677 1.78 1.35 1.992 1.49z"></path>
<path fill="#73bcde" d="M493.2 95.739c-15.615 1.342-33.536 3.49-38.592 4.628-3.286 0.74-9.28 1.979-13.324 2.747-34.612 6.601-79.052 25.92-112.561 48.927-30.797 21.147-60.615 50.594-82.446 81.427-10.245 14.467-14.945 22.451-27.801 47.205-1.821 3.502-5.509 11.879-6.73 15.278-0.725 2.022-2.566 6.778-4.086 10.567-3.442 8.568-10.937 33.272-12.596 41.503-0.672 3.341-4.64 6.841-16.713 14.739-5.632 3.684-21.758 14.439-35.835 23.901-14.074 9.457-28.073 18.858-31.107 20.885-5.388 3.605-7.853 5.262-24.81 16.688-4.549 3.061-12.921 8.631-18.606 12.372-13.15 8.656-13.12 8.273-1.838 21.278 4.676 5.388 13.85 16.023 20.389 23.632s15.638 18.132 20.215 23.382c4.577 5.255 11.219 12.962 14.756 17.128s9.066 10.62 12.285 14.341c3.22 3.719 7.642 8.83 9.822 11.358 2.186 2.528 5.131 5.939 6.551 7.581 4.698 5.436 5.277 3.719 5.798-17.163 0.562-22.438-1.443-20.298 24.81-26.517 4.829-1.141 4.807-4.283-0.070-9.958-2.115-2.465-5.798-6.752-8.185-9.532s-9.215-10.842-15.172-17.919c-5.96-7.075-11.403-13.528-12.101-14.339-1.946-2.264-0.685-4.053 5.98-8.485 3.366-2.238 11.617-7.737 18.337-12.216 6.723-4.479 12.843-8.561 13.608-9.064 2.321-1.534 4.033 1.928 4.066 8.216 0.015 3.061 0.443 8.668 0.949 12.46s1.516 11.854 2.248 17.919c0.733 6.065 1.735 12.41 2.228 14.097 0.496 1.691 1.543 6.516 2.334 10.723 0.788 4.207 2.047 9.117 2.795 10.912 3.454 8.271 2.638 8.933-17.148 13.946-19.6 4.968-17.755 1.984-18.732 30.263-2.374 68.85-2.268 72.066 2.47 73.546 1.828 0.569 14.462 5.471 42.998 16.68 3.263 1.279 7.191 2.885 8.729 3.565 8.955 3.953 33.594 13.256 35.113 13.256 2.613 0 4.287-1.652 11.129-10.995 2.558-3.497 1.632-4.162-25.062-17.992-7.581-3.928-16.678-8.587-20.215-10.353s-8.752-4.59-11.587-6.277c-5.844-3.472-4.665-0.053-9.453-27.436-1.324-7.581-2.644-14.404-2.931-15.162s-1.12-5.1-1.855-9.648c-0.733-4.549-1.531-8.91-1.77-9.696-0.983-3.208 1.571-4.499 9.976-5.053 8.168-0.539 12.569 0.64 12.569 3.361 0 0.536 1.272 3.938 2.822 7.561 21.147 49.33 59.107 96.886 104.225 130.573 14.721 10.993 13.528 8.172 11.957 28.237-0.728 9.313-1.745 24.354-2.261 33.428-1.309 23.042-2.687 41.644-3.835 51.79-0.538 4.756-1.745 18.814-2.684 31.243s-2.357 30.246-3.152 39.597c-0.793 9.348-1.682 20.039-1.971 23.755-0.647 8.299-2.475 10.622-15.688 19.991-11.698 8.291-18.521 14.592-17.237 15.912 1.647 1.692 152.483 0.914 152.483-0.788 0-1.432-6.178-6.803-20.167-17.521-11.843-9.077-11.305-5.348-7.045-48.701 0.521-5.308 1.397-16.265 1.944-24.349s1.38-17.39 1.853-20.675c0.471-3.286 1.298-13.208 1.833-22.053 0.538-8.845 1.38-19.596 1.875-23.891s1.314-11.738 1.822-16.539c2.012-19.039 2.029-19.062 11.035-16.156 10.475 3.379 27.446 6.365 45.443 7.994 23.828 2.158 74.598 1.060 90.969-1.971 2.528-0.466 8.356-1.488 12.954-2.268s10.748-2.261 13.672-3.288c11.419-4.016 12.493-1.372 15.134 37.316 0.551 8.067 1.604 20.459 2.337 27.534 0.735 7.075 1.775 19.48 2.314 27.567s1.362 17.803 1.828 21.593c0.468 3.789 1.528 16.104 2.354 27.361 1.725 23.448 2.019 22.083-6.153 28.529-18.377 14.487-22.383 17.944-22.383 19.304 0 2.248 150.881 2.853 151.742 0.609 0.8-2.085-0.693-3.472-16.043-14.956-7.745-5.788-14.409-11.408-14.82-12.486-0.826-2.178-3.323-26.336-4.197-40.551-0.31-5.053-1.151-14.978-1.871-22.053-0.718-7.075-1.953-21.547-2.744-32.16-0.796-10.612-1.843-21.985-2.331-25.268-0.486-3.286-1.272-16.31-1.737-28.944s-1.272-25.245-1.79-28.025c-0.519-2.78-1.060-10.597-1.201-17.372l-0.257-12.317 11.619-8.817c18.118-13.742 31.255-25.392 41.694-36.959 18.84-20.885 23.634-26.515 28.466-33.423 10.804-15.449 14.742-21.58 20.348-31.696 7.382-13.327 13.588-25.857 15.542-31.4 2.339-6.624 3.308-7.193 12.286-7.193 8.509 0 12.662 1.563 11.587 4.366-0.302 0.78-1.167 5.181-1.926 9.784-0.758 4.6-1.954 11.051-2.661 14.333-0.707 3.286-2.377 11.97-3.714 19.296-3.225 17.7-2.603 16.65-13.072 22.036-4.943 2.543-9.61 5.021-10.368 5.504s-3.031 1.654-5.053 2.598c-3.799 1.772-24.417 12.508-31.701 16.504-7.072 3.88-7.093 4.688-0.328 12.659 6.070 7.155 5.413 7.11 19.165 1.382 5.053-2.102 10.635-4.378 12.405-5.056 1.77-0.68 5.904-2.261 9.19-3.517 6.856-2.618 13.176-5.152 19.757-7.906 2.528-1.060 10.982-4.416 18.792-7.46 7.807-3.044 15.207-6.196 16.441-7.004l2.242-1.468-0.642-26.771c-1.626-67.936-2.044-71.335-8.795-71.335-0.947 0-5.574-1.058-10.288-2.349s-10.58-2.898-13.042-3.57c-4.897-1.334-6.358-2.754-5.72-5.567 0.695-3.061 3.308-13.394 5.114-20.215 0.936-3.537 2.186-10.361 2.774-15.162s1.478-10.318 1.974-12.257c0.499-1.939 1.231-9.505 1.626-16.814 0.905-16.675 1.35-17.136 10.192-10.559 1.264 0.942 9.016 6.123 17.229 11.514 14.913 9.794 17.566 12.596 14.014 14.792-1.042 0.642-33.104 38.375-37.024 43.572-3.152 4.18-2.578 6.242 1.966 7.062 1.846 0.332 4.025 0.949 4.841 1.37s4.743 1.429 8.729 2.242c11.076 2.256 10.869 1.858 11.169 21.814 0.272 18.289 0.564 20.882 2.362 20.882 1.345 0 3.036-1.881 31.829-35.377 32.507-37.817 59.643-69.281 62.76-72.771 4.117-4.607 1.662-6.423-98.91-73.063-6.642-4.401-12.904-8.581-13.913-9.286s-5.645-3.847-10.295-6.984c-9.62-6.488-11.604-9.132-13.155-17.539-0.607-3.286-1.825-8.247-2.709-11.026s-2.754-8.774-4.162-13.324c-1.405-4.549-3.53-10.597-4.723-13.438-1.193-2.845-2.168-5.461-2.168-5.818 0-6.219-22.401-46.888-39.247-71.253-59.406-85.923-178.926-142.473-282.358-133.594zM547.412 99.37c15.58 1.397 20.414 2.221 40.742 6.962 14.744 3.439 37.16 10.391 41.416 12.843 0.964 0.557 3.86 1.76 6.433 2.671 8.583 3.047 33.005 15.021 39.134 19.185 2.273 1.546 4.449 2.819 4.837 2.827 0.8 0.017 8.618 5.202 19.973 13.238 31.741 22.466 61.917 53.626 82.846 85.556 12.883 19.653 26.051 45.579 33.136 65.24 4.451 12.362 5.537 15.655 6.7 20.399 0.644 2.629 1.813 6.556 2.591 8.729s1.679 6.018 2.004 8.545c0.755 5.909 4.091 11.619 8.392 14.369 4.529 2.896 9.608 6.244 13.845 9.137 6.309 4.303 41.55 27.826 52.206 34.843 5.753 3.789 21.34 14.208 34.642 23.151s24.898 16.534 25.774 16.872c0.878 0.335 1.838 1.584 2.135 2.767 0.574 2.281 0.615 2.231-17.096 22.401-4.295 4.892-10.912 12.579-14.701 17.081s-10.406 12.173-14.701 17.050-10.499 12.098-13.782 16.046c-3.286 3.948-7.669 9.069-9.741 11.378-9.185 10.23-17.597 20.051-19.528 22.803-1.665 2.372-4.514 4.016-4.779 2.757-0.025-0.126-0.257-7.879-0.511-17.229-0.488-17.989-1.231-21.803-4.381-22.524-2.236-0.511-11.738-2.825-18.49-4.499-7.561-1.876-7.702-1.639 20.643-34.642 16.705-19.452 16.627-19.221 8.301-24.792-12.684-8.495-24.916-16.454-25.286-16.454-0.223 0-2.583-1.652-5.25-3.671-7.81-5.922-8.465-5.219-9.295 9.955-0.312 5.73-1.193 14.208-1.956 18.838-0.765 4.628-2.014 12.344-2.777 17.146-1.924 12.098-4.454 23.476-6.478 29.090-1.783 4.955-1.098 9.082 1.644 9.9 1.863 0.557 15.187 3.986 23.981 6.175 10.355 2.576 9.434-1.264 10.655 44.499 0.564 21.184 1.191 40.876 1.387 43.758 0.544 7.931 0.239 8.409-7.143 11.249-3.628 1.395-8.868 3.492-11.647 4.663-5.172 2.178-18.176 7.294-28.025 11.025-3.031 1.148-8.2 3.208-11.486 4.576-8.1 3.371-14.251 5.783-19.836 7.777-2.571 0.919-6.002 2.357-7.626 3.198-3.933 2.032-5.519 1.362-10.096-4.262-5.041-6.199-4.809-6.75 4.94-11.75 4.549-2.334 15.3-7.908 23.891-12.388s17.896-9.278 20.675-10.665c7.372-3.681 8.674-5.554 10.821-15.555 2.334-10.864 6.465-33.071 7.183-38.592 0.295-2.273 1.148-6.091 1.901-8.483 2.558-8.15 0.768-9.663-11.876-10.041-9.99-0.3-12.831 1.103-14.046 6.921-1.435 6.876-18.153 38.006-28.438 52.958-2.528 3.673-5.627 8.193-6.891 10.041-14.776 21.633-46.13 52.999-71.668 71.693-8.976 6.571-13.238 10.615-12.498 11.861 0.191 0.32 0.604 5.751 0.922 12.068 0.315 6.317 1.173 17.068 1.906 23.891s1.777 21.089 2.324 31.701c0.546 10.612 1.586 24.259 2.306 30.324s1.742 18.055 2.268 26.648c0.526 8.59 1.559 20.789 2.296 27.106s1.777 18.566 2.314 27.217c1.78 28.808 0.622 26.28 18.002 39.302 7.52 5.635 13.812 10.96 13.981 11.834 0.29 1.496-3.98 1.589-72.428 1.589-57.767 0-72.662-0.237-72.378-1.148 0.197-0.632 4.885-4.733 10.416-9.117 5.529-4.383 11.864-9.633 14.074-11.665l4.018-3.696-0.496-5.793c-0.275-3.186-0.967-12.617-1.541-20.955-0.571-8.339-1.632-20.537-2.351-27.106s-1.75-18.767-2.289-27.106c-0.538-8.339-1.563-20.331-2.281-26.648-0.72-6.317-1.757-18.722-2.309-27.567-1.015-16.285-3.067-29.77-4.869-32.011-1.198-1.49-3.122-1.221-17.78 2.485-10.577 2.676-16.046 3.668-31.089 5.635-11.629 1.521-55.972 2.14-73.050 1.022-20.56-1.347-42.074-5.061-54.673-9.439-7.556-2.626-7.787-2.321-9.6 12.551-0.554 4.549-1.405 11.164-1.893 14.701s-1.307 13.463-1.823 22.053c-0.516 8.59-1.536 20.995-2.266 27.567-0.73 6.569-1.78 19.181-2.337 28.025-0.554 8.845-1.586 20.834-2.294 26.648s-1.563 16.408-1.903 23.549c-0.718 14.983-1.47 13.324 9.915 21.824 10.154 7.581 17.533 13.767 17.951 15.043 0.297 0.911-14.666 1.148-72.753 1.148-40.218 0-73.113-0.31-73.095-0.69 0.063-1.503 2.765-3.852 14.671-12.767 17.156-12.843 15.733-10.459 17.070-28.596 0.622-8.456 1.768-21.164 2.538-28.239 0.774-7.075 1.659-18.032 1.969-24.349s1.158-16.449 1.886-22.511c0.728-6.065 1.737-17.848 2.241-26.187s1.339-19.502 1.858-24.81c0.519-5.308 1.581-19.78 2.362-32.16s1.835-24.175 2.344-26.208c1.435-5.733 0.066-7.848-9.94-15.358-18.629-13.984-23.058-17.594-33.174-27.056-30.271-28.307-57.274-66.028-73.722-102.979-7.014-15.761-6.378-15.243-17.795-14.462-13.165 0.896-13.53 1.239-11.156 10.398 0.78 3.014 1.42 6.604 1.42 7.979s0.808 5.861 1.796 9.976c0.987 4.111 2.429 11.405 3.205 16.207 2.14 13.281 4.139 21.393 5.69 23.111 1.244 1.372 16.912 9.771 48.537 26.021 14.547 7.475 14.068 6.752 8.656 13.070-5.871 6.856-7.435 6.735-27.308-2.080-1.69-0.748-6.857-2.815-11.486-4.592-4.628-1.775-10.69-4.217-13.47-5.423s-6.196-2.478-7.591-2.819c-1.395-0.345-2.754-0.983-3.027-1.418-0.27-0.435-2.228-1.239-4.356-1.78-2.128-0.544-5.106-1.584-6.621-2.311s-6.685-2.81-11.486-4.625c-12.332-4.663-11.282-1.148-10.159-34.022 2.478-72.433 1.69-65.167 7.183-66.149 1.888-0.337 9.016-2.019 15.839-3.737 16.605-4.18 17.368-5.169 13.301-17.294-0.682-2.037-1.906-7.425-2.722-11.972s-1.875-9.464-2.351-10.924c-0.8-2.44-3.971-31.447-4.814-44.063-0.222-3.286-0.864-5.685-1.657-6.189-2.014-1.274-5.083-0.992-6.398 0.589-0.655 0.788-3.497 2.923-6.314 4.738s-7.304 4.789-9.973 6.604c-2.669 1.815-5.546 3.714-6.403 4.22-13.772 8.16-17.345 11.74-14.842 14.881 2.913 3.658 26.88 32.018 27.416 32.441 2.095 1.657 11.999 14.814 11.999 15.942 0 0.954-1.647 1.71-5.284 2.425-22.983 4.52-22.511 3.986-23.002 25.925-0.41 18.279-1.052 21.282-3.701 17.372-1.498-2.211-5.114-6.464-25.445-29.944-6.065-7.002-12.241-14.215-13.727-16.026s-4.587-5.386-6.891-7.941c-3.396-3.766-12.687-14.437-21.189-24.337-0.758-0.881-5.308-6.292-10.108-12.022s-9.867-11.446-11.257-12.704c-4.471-4.049-3.553-5.813 6.433-12.395 9.225-6.078 94.285-63.080 100.846-67.579 2.022-1.387 7.908-5.336 13.085-8.777 13.281-8.827 14.344-10.587 18.523-30.586 0.564-2.691 1.465-5.723 2.006-6.732s1.521-3.769 2.175-6.131c0.655-2.362 2.241-6.982 3.522-10.266s3.212-8.247 4.293-11.026c28.445-73.337 94.685-140.795 170.031-173.161 4.295-1.848 8.583-3.782 9.525-4.303 0.942-0.519 4.663-1.949 8.271-3.175 50.884-17.302 92.303-22.196 146.684-17.319zM489.524 198.568c-45.329 6.289-95.453 38.265-115.212 73.491-0.851 1.516-2.83 4.824-4.401 7.352-25.331 40.78-30.034 103.386-10.904 145.181 9.686 21.162 15.346 30.601 26.049 43.434 37.9 45.438 91.641 66.567 150.023 58.985 7.941-1.032 15.172-2.268 16.073-2.752 0.899-0.481 4.046-1.476 6.989-2.211 37.797-9.419 78.584-41.836 97.983-77.874 4.943-9.182 4.894-9.089 7.327-14.527 23.513-52.613 16.569-118.886-17.163-163.833-4.287-5.708-18.264-21.855-19.938-23.025-0.983-0.69-3.328-2.674-5.214-4.411-9.631-8.876-24.135-18.629-36.505-24.548-3.537-1.692-7.531-3.653-8.873-4.356s-2.996-1.279-3.676-1.281c-0.68-0.005-2.435-0.632-3.902-1.397-2.691-1.403-16.798-5.388-24.44-6.899-12.428-2.46-41.017-3.162-54.212-1.329zM545.219 202.653c23.070 4.814 49.429 16.209 61.461 26.57 1.010 0.871 3.663 2.802 5.897 4.293 31.882 21.288 57.941 68.611 62.209 112.974 10.857 112.922-90.959 201.735-201.196 175.502-96.128-22.878-150.254-128.514-112.992-220.527 29.584-73.058 107.704-114.867 184.622-98.814z"></path>
<path fill="#7c7c74" d="M494.467 317.595c-22.373 5.161-40.772 18.499-52.722 38.217-3.122 5.152-8.555 17.806-7.916 18.443 0.212 0.212 1.279-2.019 2.374-4.96 6.020-16.194 19.079-31.341 36.795-42.678 11.018-7.050 37.321-11.105 52.457-8.087 2.729 0.544 6.149 1.196 7.598 1.453 3.893 0.685 16.237 5.552 19.415 7.656 1.516 1.005 3.583 2.347 4.595 2.986 8.483 5.363 20.238 17.206 23.956 24.135 0.544 1.010 1.662 3.079 2.485 4.595 2.47 4.54 7.095 15.826 7.095 17.31 0 0.758 0.675 3.998 1.501 7.198 2.777 10.773 0.485 32.935-4.565 44.103-2.49 5.509-2.54 7.787-0.058 2.603 28.186-58.86-28.599-127.834-93.013-112.972zM494.577 369.921c1.010 0.433 2.457 0.791 3.215 0.791 0.869 0 0.697-0.292-0.459-0.791-1.010-0.433-2.457-0.791-3.215-0.791-0.869 0-0.697 0.292 0.459 0.791zM483.323 370.866c-3.183 1.279-2.45 1.843 0.919 0.707 1.641-0.554 3.16-1.153 3.369-1.329 0.747-0.632-2.253-0.197-4.288 0.622zM505.066 374.131c1.551 1.304 3.651 3.427 4.665 4.718 1.015 1.289 1.846 1.876 1.846 1.304 0-1.594-6.471-8.397-7.986-8.397-0.796 0-0.194 0.967 1.478 2.373zM476.976 375.229c-3.183 2.742-5.874 7.448-5.746 10.036 0.045 0.909 0.456 0.375 0.909-1.193 0.453-1.563 2.518-4.769 4.59-7.12 4.303-4.89 4.358-5.27 0.247-1.722zM431.636 383.243c-0.617 4.351-0.916 8.117-0.665 8.372s0.984-3.081 1.629-7.407c0.642-4.325 0.942-8.092 0.665-8.372s-1.010 3.055-1.629 7.407zM513.571 391.055c-0.028 4.262 0.123 4.733 0.959 2.996 0.697-1.448 0.71-2.943 0.033-5.053-0.919-2.865-0.962-2.772-0.992 2.058zM470.563 392.581c0.509 12.521 8.928 20.525 21.592 20.525h8.1l5.111-4.366c4.698-4.013 9.049-10.564 7.825-11.786-0.279-0.279-0.984 0.931-1.568 2.691-6.526 19.78-37.461 14.591-40.455-6.785l-0.831-5.942 0.229 5.662zM430.236 394.961c-0.282 1.138-0.123 3.721 0.35 5.743 0.852 3.615 0.866 3.583 0.957-2.067 0.093-5.909-0.403-7.306-1.307-3.676zM432.215 414.47c0.557 5.806 2.742 12.42 4.106 12.42 0.448 0 0.123-1.717-0.715-3.815-0.841-2.1-2.064-6.131-2.722-8.958l-1.196-5.144 0.526 5.496zM437.205 431.025c0 0.506 1.017 2.573 2.264 4.595s2.266 3.263 2.266 2.757c0-0.506-1.020-2.573-2.266-4.595s-2.264-3.263-2.264-2.757zM579.639 443.095c-1.047 1.332-1.903 2.86-1.903 3.396s1.035-0.431 2.296-2.14c1.264-1.712 2.296-3.238 2.296-3.396 0-0.808-0.987-0.023-2.689 2.14zM443.316 442.74c10.157 13.255 17.103 20.056 25.532 24.996l2.757 1.614-2.74-2.163c-11.264-8.893-24.367-22.257-24.367-24.855 0-0.406-0.463-0.74-1.032-0.74-0.682 0-0.733 0.388-0.151 1.148zM569.070 456.205l-5.453 6.063 5.869-5.708c3.228-3.14 5.68-5.869 5.451-6.065-0.226-0.194-2.87 2.374-5.866 5.71zM556.056 466.535c-1.74 1.956-1.737 1.964 0.267 0.914 2.233-1.171 3.608-2.885 2.316-2.885-0.458 0-1.619 0.886-2.583 1.971zM546.494 471.916c-0.758 0.488-3.527 1.523-6.156 2.294-2.626 0.773-5.018 1.795-5.312 2.271s1.702 0.098 4.436-0.844c5.31-1.825 10.851-4.552 9.331-4.592-0.506-0.013-1.538 0.38-2.296 0.869zM492.858 477.241c-1.717 2.774 29.198 3.774 36.638 1.186 2.49-0.869 2.357-0.914-1.377-0.481-14.739 1.71-27.287 1.297-33.539-1.103-0.657-0.252-1.43-0.073-1.719 0.398z"></path>
<path fill="#7c747c" d="M498.59 318.562c-9.464 1.538-21.172 5.224-25.596 8.054-35.178 22.516-51.118 63.828-37.318 96.712 0.771 1.83 1.186 3.543 0.927 3.802-0.509 0.506 5.078 11.634 7.692 15.321 12.573 17.742 34.035 33.159 47.956 34.445 1.785 0.166 5.771 0.806 8.855 1.429 8.951 1.8 29.44 0.194 35.8-2.807 2.057-0.972 4.225-1.765 4.821-1.765 1.979 0 12.72-5.479 14.411-7.349 0.916-1.012 2.213-1.841 2.883-1.841 0.669 0 4.429-3.165 8.356-7.037 3.925-3.87 7.41-6.987 7.742-6.921s1.481-1.629 2.556-3.762c1.075-2.133 3.16-5.529 4.638-7.551 1.476-2.022 2.946-4.816 3.263-6.211 0.32-1.395 1.189-3.754 1.928-5.242 4.943-9.91 7.377-33.197 4.595-43.983-0.826-3.2-1.501-6.438-1.501-7.198 0-1.211-4.331-12.153-6.306-15.93-6.501-12.438-16.141-23.095-27.232-30.107-1.010-0.64-3.079-1.981-4.595-2.986-3.17-2.1-15.51-6.966-19.415-7.659-1.453-0.259-4.915-0.884-7.694-1.392-8.827-1.613-16.962-1.621-26.769-0.025zM500.552 370.833c16.006 4.761 18.707 26.046 4.814 37.91l-5.111 4.366h-8.1c-9.985 0-12.143-1.131-17.556-9.205-12.548-18.712 3.872-39.639 25.953-33.071z"></path>
<path fill="#bcbcb4" d="M498.714 314.78c-1.77 0.446-5.899 1.488-9.177 2.316s-6.38 1.818-6.891 2.2c-0.511 0.383-2.377 1.267-4.147 1.964-38.58 15.207-60.061 67.793-43.736 107.055 15.394 37.018 55.3 59.955 91.057 52.334 16.491-3.515 27.886-8.85 39.259-18.385 11.091-9.295 26.442-31.603 26.442-38.424 0-0.745 0.841-4.076 1.868-7.4 4.156-13.457 2.108-36.802-4.504-51.314-1.075-2.364-1.956-4.523-1.956-4.799 0-2.221-10.194-15.469-17.37-22.572-9.238-9.142-19.402-15.701-29.035-18.735-2.528-0.798-6.662-2.12-9.19-2.946-5.285-1.719-27.446-2.606-32.62-1.298zM529.496 317.52c74.989 16.171 88.454 116.879 20.515 153.424-48.086 25.867-111.396-5.831-118.271-59.215-0.587-4.549-1.249-9.691-1.473-11.433-0.224-1.74 0.209-7.871 0.964-13.626 6.201-47.306 51.556-79.224 98.265-69.15zM484.257 371.442c-4.852 1.717-10.895 8.374-12.292 13.538-5.486 20.298 18.84 35.83 34.279 21.882 17.559-15.864 0.481-43.376-21.986-35.42zM500.262 372.734c9.527 3.59 14.885 17.942 10.132 27.134-8.483 16.401-34.163 13.115-37.525-4.801-2.963-15.797 12.121-28.093 27.393-22.332z"></path>
</svg>
